<?xml version="1.0" encoding="utf-8"?>
<svg xmlns="http://www.w3.org/2000/svg" xmlns:xlink="http://www.w3.org/1999/xlink" width="576" height="384" viewBox="0 0 2304 1536">
<defs>
  <clipPath id="clip260">
    <rect x="0" y="0" width="2304" height="1536"/>
  </clipPath>
</defs>
<path clip-path="url(#clip260)" d="
M0 1536 L2304 1536 L2304 0 L0 0  Z
  " fill="#ffffff" fill-rule="evenodd" fill-opacity="1"/>
<defs>
  <clipPath id="clip261">
    <rect x="460" y="0" width="1614" height="1536"/>
  </clipPath>
</defs>
<path clip-path="url(#clip260)" d="
M218.42 1423.09 L2256.76 1423.09 L2256.76 123.472 L218.42 123.472  Z
  " fill="#ffffff" fill-rule="evenodd" fill-opacity="1"/>
<defs>
  <clipPath id="clip262">
    <rect x="218" y="123" width="2039" height="1301"/>
  </clipPath>
</defs>
<polyline clip-path="url(#clip262)" style="stroke:#000000; stroke-linecap:butt; stroke-linejoin:round; stroke-width:2; stroke-opacity:0.1; fill:none" points="
  423.564,1423.09 423.564,123.472 
  "/>
<polyline clip-path="url(#clip262)" style="stroke:#000000; stroke-linecap:butt; stroke-linejoin:round; stroke-width:2; stroke-opacity:0.1; fill:none" points="
  656.142,1423.09 656.142,123.472 
  "/>
<polyline clip-path="url(#clip262)" style="stroke:#000000; stroke-linecap:butt; stroke-linejoin:round; stroke-width:2; stroke-opacity:0.1; fill:none" points="
  888.72,1423.09 888.72,123.472 
  "/>
<polyline clip-path="url(#clip262)" style="stroke:#000000; stroke-linecap:butt; stroke-linejoin:round; stroke-width:2; stroke-opacity:0.1; fill:none" points="
  1121.3,1423.09 1121.3,123.472 
  "/>
<polyline clip-path="url(#clip262)" style="stroke:#000000; stroke-linecap:butt; stroke-linejoin:round; stroke-width:2; stroke-opacity:0.1; fill:none" points="
  1353.88,1423.09 1353.88,123.472 
  "/>
<polyline clip-path="url(#clip262)" style="stroke:#000000; stroke-linecap:butt; stroke-linejoin:round; stroke-width:2; stroke-opacity:0.1; fill:none" points="
  1586.46,1423.09 1586.46,123.472 
  "/>
<polyline clip-path="url(#clip262)" style="stroke:#000000; stroke-linecap:butt; stroke-linejoin:round; stroke-width:2; stroke-opacity:0.1; fill:none" points="
  1819.03,1423.09 1819.03,123.472 
  "/>
<polyline clip-path="url(#clip262)" style="stroke:#000000; stroke-linecap:butt; stroke-linejoin:round; stroke-width:2; stroke-opacity:0.1; fill:none" points="
  2051.61,1423.09 2051.61,123.472 
  "/>
<polyline clip-path="url(#clip260)" style="stroke:#000000; stroke-linecap:butt; stroke-linejoin:round; stroke-width:4; stroke-opacity:1; fill:none" points="
  218.42,1423.09 2256.76,1423.09 
  "/>
<polyline clip-path="url(#clip260)" style="stroke:#000000; stroke-linecap:butt; stroke-linejoin:round; stroke-width:4; stroke-opacity:1; fill:none" points="
  423.564,1423.09 423.564,1407.49 
  "/>
<polyline clip-path="url(#clip260)" style="stroke:#000000; stroke-linecap:butt; stroke-linejoin:round; stroke-width:4; stroke-opacity:1; fill:none" points="
  656.142,1423.09 656.142,1407.49 
  "/>
<polyline clip-path="url(#clip260)" style="stroke:#000000; stroke-linecap:butt; stroke-linejoin:round; stroke-width:4; stroke-opacity:1; fill:none" points="
  888.72,1423.09 888.72,1407.49 
  "/>
<polyline clip-path="url(#clip260)" style="stroke:#000000; stroke-linecap:butt; stroke-linejoin:round; stroke-width:4; stroke-opacity:1; fill:none" points="
  1121.3,1423.09 1121.3,1407.49 
  "/>
<polyline clip-path="url(#clip260)" style="stroke:#000000; stroke-linecap:butt; stroke-linejoin:round; stroke-width:4; stroke-opacity:1; fill:none" points="
  1353.88,1423.09 1353.88,1407.49 
  "/>
<polyline clip-path="url(#clip260)" style="stroke:#000000; stroke-linecap:butt; stroke-linejoin:round; stroke-width:4; stroke-opacity:1; fill:none" points="
  1586.46,1423.09 1586.46,1407.49 
  "/>
<polyline clip-path="url(#clip260)" style="stroke:#000000; stroke-linecap:butt; stroke-linejoin:round; stroke-width:4; stroke-opacity:1; fill:none" points="
  1819.03,1423.09 1819.03,1407.49 
  "/>
<polyline clip-path="url(#clip260)" style="stroke:#000000; stroke-linecap:butt; stroke-linejoin:round; stroke-width:4; stroke-opacity:1; fill:none" points="
  2051.61,1423.09 2051.61,1407.49 
  "/>
<path clip-path="url(#clip260)" d="M360.161 1452.27 L360.161 1479.15 L365.809 1479.15 Q372.962 1479.15 376.272 1475.91 Q379.606 1472.67 379.606 1465.68 Q379.606 1458.73 376.272 1455.52 Q372.962 1452.27 365.809 1452.27 L360.161 1452.27 M355.485 1448.43 L365.092 1448.43 Q375.138 1448.43 379.837 1452.62 Q384.536 1456.79 384.536 1465.68 Q384.536 1474.61 379.814 1478.8 Q375.092 1482.99 365.092 1482.99 L355.485 1482.99 L355.485 1448.43 Z" fill="#000000" fill-rule="evenodd" fill-opacity="1" /><path clip-path="url(#clip260)" d="M391.805 1457.07 L396.064 1457.07 L396.064 1482.99 L391.805 1482.99 L391.805 1457.07 M391.805 1446.97 L396.064 1446.97 L396.064 1452.37 L391.805 1452.37 L391.805 1446.97 Z" fill="#000000" fill-rule="evenodd" fill-opacity="1" /><path clip-path="url(#clip260)" d="M419.999 1461.05 Q419.281 1460.63 418.425 1460.45 Q417.591 1460.24 416.573 1460.24 Q412.962 1460.24 411.017 1462.6 Q409.096 1464.94 409.096 1469.33 L409.096 1482.99 L404.814 1482.99 L404.814 1457.07 L409.096 1457.07 L409.096 1461.09 Q410.439 1458.73 412.591 1457.6 Q414.744 1456.44 417.823 1456.44 Q418.263 1456.44 418.795 1456.51 Q419.328 1456.56 419.976 1456.67 L419.999 1461.05 Z" fill="#000000" fill-rule="evenodd" fill-opacity="1" /><path clip-path="url(#clip260)" d="M445.601 1468.96 L445.601 1471.05 L426.017 1471.05 Q426.295 1475.45 428.656 1477.76 Q431.04 1480.05 435.277 1480.05 Q437.73 1480.05 440.022 1479.45 Q442.337 1478.85 444.605 1477.64 L444.605 1481.67 Q442.314 1482.64 439.906 1483.15 Q437.499 1483.66 435.022 1483.66 Q428.818 1483.66 425.184 1480.05 Q421.573 1476.44 421.573 1470.28 Q421.573 1463.92 424.999 1460.19 Q428.448 1456.44 434.281 1456.44 Q439.513 1456.44 442.545 1459.82 Q445.601 1463.18 445.601 1468.96 M441.341 1467.71 Q441.295 1464.22 439.374 1462.14 Q437.476 1460.05 434.327 1460.05 Q430.763 1460.05 428.61 1462.07 Q426.48 1464.08 426.156 1467.74 L441.341 1467.71 Z" fill="#000000" fill-rule="evenodd" fill-opacity="1" /><path clip-path="url(#clip260)" d="M471.249 1458.06 L471.249 1462.04 Q469.443 1461.05 467.614 1460.56 Q465.809 1460.05 463.957 1460.05 Q459.813 1460.05 457.522 1462.69 Q455.23 1465.31 455.23 1470.05 Q455.23 1474.8 457.522 1477.44 Q459.813 1480.05 463.957 1480.05 Q465.809 1480.05 467.614 1479.57 Q469.443 1479.06 471.249 1478.06 L471.249 1482 Q469.466 1482.83 467.545 1483.25 Q465.647 1483.66 463.494 1483.66 Q457.638 1483.66 454.188 1479.98 Q450.739 1476.3 450.739 1470.05 Q450.739 1463.71 454.212 1460.08 Q457.707 1456.44 463.772 1456.44 Q465.739 1456.44 467.614 1456.86 Q469.489 1457.25 471.249 1458.06 Z" fill="#000000" fill-rule="evenodd" fill-opacity="1" /><path clip-path="url(#clip260)" d="M482.869 1449.71 L482.869 1457.07 L491.642 1457.07 L491.642 1460.38 L482.869 1460.38 L482.869 1474.45 Q482.869 1477.62 483.725 1478.52 Q484.605 1479.43 487.267 1479.43 L491.642 1479.43 L491.642 1482.99 L487.267 1482.99 Q482.336 1482.99 480.461 1481.16 Q478.586 1479.31 478.586 1474.45 L478.586 1460.38 L475.461 1460.38 L475.461 1457.07 L478.586 1457.07 L478.586 1449.71 L482.869 1449.71 Z" fill="#000000" fill-rule="evenodd" fill-opacity="1" /><path clip-path="url(#clip260)" d="M555.876 1452.27 L555.876 1479.15 L561.524 1479.15 Q568.677 1479.15 571.987 1475.91 Q575.321 1472.67 575.321 1465.68 Q575.321 1458.73 571.987 1455.52 Q568.677 1452.27 561.524 1452.27 L555.876 1452.27 M551.2 1448.43 L560.807 1448.43 Q570.853 1448.43 575.552 1452.62 Q580.251 1456.79 580.251 1465.68 Q580.251 1474.61 575.529 1478.8 Q570.807 1482.99 560.807 1482.99 L551.2 1482.99 L551.2 1448.43 Z" fill="#000000" fill-rule="evenodd" fill-opacity="1" /><path clip-path="url(#clip260)" d="M587.52 1457.07 L591.779 1457.07 L591.779 1482.99 L587.52 1482.99 L587.52 1457.07 M587.52 1446.97 L591.779 1446.97 L591.779 1452.37 L587.52 1452.37 L587.52 1446.97 Z" fill="#000000" fill-rule="evenodd" fill-opacity="1" /><path clip-path="url(#clip260)" d="M615.714 1461.05 Q614.996 1460.63 614.14 1460.45 Q613.307 1460.24 612.288 1460.24 Q608.677 1460.24 606.733 1462.6 Q604.811 1464.94 604.811 1469.33 L604.811 1482.99 L600.529 1482.99 L600.529 1457.07 L604.811 1457.07 L604.811 1461.09 Q606.154 1458.73 608.307 1457.6 Q610.459 1456.44 613.538 1456.44 Q613.978 1456.44 614.51 1456.51 Q615.043 1456.56 615.691 1456.67 L615.714 1461.05 Z" fill="#000000" fill-rule="evenodd" fill-opacity="1" /><path clip-path="url(#clip260)" d="M641.316 1468.96 L641.316 1471.05 L621.732 1471.05 Q622.01 1475.45 624.371 1477.76 Q626.756 1480.05 630.992 1480.05 Q633.445 1480.05 635.737 1479.45 Q638.052 1478.85 640.32 1477.64 L640.32 1481.67 Q638.029 1482.64 635.621 1483.15 Q633.214 1483.66 630.737 1483.66 Q624.533 1483.66 620.899 1480.05 Q617.288 1476.44 617.288 1470.28 Q617.288 1463.92 620.714 1460.19 Q624.163 1456.44 629.996 1456.44 Q635.228 1456.44 638.26 1459.82 Q641.316 1463.18 641.316 1468.96 M637.056 1467.71 Q637.01 1464.22 635.089 1462.14 Q633.191 1460.05 630.043 1460.05 Q626.478 1460.05 624.325 1462.07 Q622.195 1464.08 621.871 1467.74 L637.056 1467.71 Z" fill="#000000" fill-rule="evenodd" fill-opacity="1" /><path clip-path="url(#clip260)" d="M666.964 1458.06 L666.964 1462.04 Q665.158 1461.05 663.329 1460.56 Q661.524 1460.05 659.672 1460.05 Q655.529 1460.05 653.237 1462.69 Q650.945 1465.31 650.945 1470.05 Q650.945 1474.8 653.237 1477.44 Q655.529 1480.05 659.672 1480.05 Q661.524 1480.05 663.329 1479.57 Q665.158 1479.06 666.964 1478.06 L666.964 1482 Q665.181 1482.83 663.26 1483.25 Q661.362 1483.66 659.209 1483.66 Q653.353 1483.66 649.904 1479.98 Q646.455 1476.3 646.455 1470.05 Q646.455 1463.71 649.927 1460.08 Q653.422 1456.44 659.487 1456.44 Q661.454 1456.44 663.329 1456.86 Q665.204 1457.25 666.964 1458.06 Z" fill="#000000" fill-rule="evenodd" fill-opacity="1" /><path clip-path="url(#clip260)" d="M678.584 1449.71 L678.584 1457.07 L687.357 1457.07 L687.357 1460.38 L678.584 1460.38 L678.584 1474.45 Q678.584 1477.62 679.441 1478.52 Q680.32 1479.43 682.982 1479.43 L687.357 1479.43 L687.357 1482.99 L682.982 1482.99 Q678.052 1482.99 676.177 1481.16 Q674.302 1479.31 674.302 1474.45 L674.302 1460.38 L671.177 1460.38 L671.177 1457.07 L674.302 1457.07 L674.302 1449.71 L678.584 1449.71 Z" fill="#000000" fill-rule="evenodd" fill-opacity="1" /><path clip-path="url(#clip260)" d="M693.144 1448.43 L713.005 1448.43 L713.005 1452.37 L697.82 1452.37 L697.82 1462.55 L711.524 1462.55 L711.524 1466.49 L697.82 1466.49 L697.82 1482.99 L693.144 1482.99 L693.144 1448.43 Z" fill="#000000" fill-rule="evenodd" fill-opacity="1" /><path clip-path="url(#clip260)" d="M717.334 1448.43 L722.056 1448.43 L729.324 1477.64 L736.57 1448.43 L741.824 1448.43 L749.093 1477.64 L756.338 1448.43 L761.084 1448.43 L752.403 1482.99 L746.523 1482.99 L739.232 1452.99 L731.871 1482.99 L725.991 1482.99 L717.334 1448.43 Z" fill="#000000" fill-rule="evenodd" fill-opacity="1" /><path clip-path="url(#clip260)" d="M842.806 1448.43 L862.667 1448.43 L862.667 1452.37 L847.482 1452.37 L847.482 1462.55 L861.186 1462.55 L861.186 1466.49 L847.482 1466.49 L847.482 1482.99 L842.806 1482.99 L842.806 1448.43 Z" fill="#000000" fill-rule="evenodd" fill-opacity="1" /><path clip-path="url(#clip260)" d="M886.463 1466.79 Q887.968 1467.3 889.38 1468.96 Q890.815 1470.63 892.25 1473.55 L896.996 1482.99 L891.973 1482.99 L887.551 1474.13 Q885.838 1470.65 884.218 1469.52 Q882.621 1468.39 879.843 1468.39 L874.751 1468.39 L874.751 1482.99 L870.075 1482.99 L870.075 1448.43 L880.63 1448.43 Q886.556 1448.43 889.473 1450.91 Q892.389 1453.39 892.389 1458.39 Q892.389 1461.65 890.862 1463.8 Q889.357 1465.95 886.463 1466.79 M874.751 1452.27 L874.751 1464.54 L880.63 1464.54 Q884.01 1464.54 885.723 1462.99 Q887.459 1461.42 887.459 1458.39 Q887.459 1455.35 885.723 1453.83 Q884.01 1452.27 880.63 1452.27 L874.751 1452.27 Z" fill="#000000" fill-rule="evenodd" fill-opacity="1" /><path clip-path="url(#clip260)" d="M903.014 1448.43 L909.982 1448.43 L918.801 1471.95 L927.667 1448.43 L934.635 1448.43 L934.635 1482.99 L930.074 1482.99 L930.074 1452.64 L921.162 1476.35 L916.463 1476.35 L907.551 1452.64 L907.551 1482.99 L903.014 1482.99 L903.014 1448.43 Z" fill="#000000" fill-rule="evenodd" fill-opacity="1" /><path clip-path="url(#clip260)" d="M1036.77 1448.43 L1056.63 1448.43 L1056.63 1452.37 L1041.45 1452.37 L1041.45 1462.55 L1055.15 1462.55 L1055.15 1466.49 L1041.45 1466.49 L1041.45 1482.99 L1036.77 1482.99 L1036.77 1448.43 Z" fill="#000000" fill-rule="evenodd" fill-opacity="1" /><path clip-path="url(#clip260)" d="M1080.43 1466.79 Q1081.94 1467.3 1083.35 1468.96 Q1084.78 1470.63 1086.22 1473.55 L1090.96 1482.99 L1085.94 1482.99 L1081.52 1474.13 Q1079.81 1470.65 1078.19 1469.52 Q1076.59 1468.39 1073.81 1468.39 L1068.72 1468.39 L1068.72 1482.99 L1064.04 1482.99 L1064.04 1448.43 L1074.6 1448.43 Q1080.52 1448.43 1083.44 1450.91 Q1086.36 1453.39 1086.36 1458.39 Q1086.36 1461.65 1084.83 1463.8 Q1083.32 1465.95 1080.43 1466.79 M1068.72 1452.27 L1068.72 1464.54 L1074.6 1464.54 Q1077.98 1464.54 1079.69 1462.99 Q1081.43 1461.42 1081.43 1458.39 Q1081.43 1455.35 1079.69 1453.83 Q1077.98 1452.27 1074.6 1452.27 L1068.72 1452.27 Z" fill="#000000" fill-rule="evenodd" fill-opacity="1" /><path clip-path="url(#clip260)" d="M1096.98 1448.43 L1103.95 1448.43 L1112.77 1471.95 L1121.63 1448.43 L1128.6 1448.43 L1128.6 1482.99 L1124.04 1482.99 L1124.04 1452.64 L1115.13 1476.35 L1110.43 1476.35 L1101.52 1452.64 L1101.52 1482.99 L1096.98 1482.99 L1096.98 1448.43 Z" fill="#000000" fill-rule="evenodd" fill-opacity="1" /><path clip-path="url(#clip260)" d="M1137.88 1448.43 L1157.75 1448.43 L1157.75 1452.37 L1142.56 1452.37 L1142.56 1462.55 L1156.26 1462.55 L1156.26 1466.49 L1142.56 1466.49 L1142.56 1482.99 L1137.88 1482.99 L1137.88 1448.43 Z" fill="#000000" fill-rule="evenodd" fill-opacity="1" /><path clip-path="url(#clip260)" d="M1162.07 1448.43 L1166.8 1448.43 L1174.06 1477.64 L1181.31 1448.43 L1186.56 1448.43 L1193.83 1477.64 L1201.08 1448.43 L1205.82 1448.43 L1197.14 1482.99 L1191.26 1482.99 L1183.97 1452.99 L1176.61 1482.99 L1170.73 1482.99 L1162.07 1448.43 Z" fill="#000000" fill-rule="evenodd" fill-opacity="1" /><path clip-path="url(#clip260)" d="M1222.04 1449.57 L1222.04 1454.13 Q1219.38 1452.85 1217.01 1452.23 Q1214.65 1451.6 1212.45 1451.6 Q1208.63 1451.6 1206.55 1453.08 Q1204.49 1454.57 1204.49 1457.3 Q1204.49 1459.59 1205.86 1460.77 Q1207.25 1461.93 1211.09 1462.64 L1213.91 1463.22 Q1219.14 1464.22 1221.62 1466.74 Q1224.12 1469.24 1224.12 1473.45 Q1224.12 1478.48 1220.74 1481.07 Q1217.38 1483.66 1210.88 1483.66 Q1208.43 1483.66 1205.65 1483.11 Q1202.89 1482.55 1199.93 1481.46 L1199.93 1476.65 Q1202.78 1478.25 1205.51 1479.06 Q1208.24 1479.87 1210.88 1479.87 Q1214.88 1479.87 1217.06 1478.29 Q1219.24 1476.72 1219.24 1473.8 Q1219.24 1471.26 1217.66 1469.82 Q1216.11 1468.39 1212.55 1467.67 L1209.7 1467.11 Q1204.47 1466.07 1202.13 1463.85 Q1199.79 1461.63 1199.79 1457.67 Q1199.79 1453.08 1203.01 1450.45 Q1206.25 1447.81 1211.92 1447.81 Q1214.35 1447.81 1216.88 1448.25 Q1219.4 1448.69 1222.04 1449.57 Z" fill="#000000" fill-rule="evenodd" fill-opacity="1" /><path clip-path="url(#clip260)" d="M1241.27 1460.05 Q1237.85 1460.05 1235.86 1462.74 Q1233.87 1465.4 1233.87 1470.05 Q1233.87 1474.7 1235.83 1477.39 Q1237.82 1480.05 1241.27 1480.05 Q1244.68 1480.05 1246.67 1477.37 Q1248.66 1474.68 1248.66 1470.05 Q1248.66 1465.45 1246.67 1462.76 Q1244.68 1460.05 1241.27 1460.05 M1241.27 1456.44 Q1246.83 1456.44 1250 1460.05 Q1253.17 1463.66 1253.17 1470.05 Q1253.17 1476.42 1250 1480.05 Q1246.83 1483.66 1241.27 1483.66 Q1235.69 1483.66 1232.52 1480.05 Q1229.38 1476.42 1229.38 1470.05 Q1229.38 1463.66 1232.52 1460.05 Q1235.69 1456.44 1241.27 1456.44 Z" fill="#000000" fill-rule="evenodd" fill-opacity="1" /><path clip-path="url(#clip260)" d="M1275.25 1461.05 Q1274.54 1460.63 1273.68 1460.45 Q1272.85 1460.24 1271.83 1460.24 Q1268.22 1460.24 1266.27 1462.6 Q1264.35 1464.94 1264.35 1469.33 L1264.35 1482.99 L1260.07 1482.99 L1260.07 1457.07 L1264.35 1457.07 L1264.35 1461.09 Q1265.69 1458.73 1267.85 1457.6 Q1270 1456.44 1273.08 1456.44 Q1273.52 1456.44 1274.05 1456.51 Q1274.58 1456.56 1275.23 1456.67 L1275.25 1461.05 Z" fill="#000000" fill-rule="evenodd" fill-opacity="1" /><path clip-path="url(#clip260)" d="M1283.94 1449.71 L1283.94 1457.07 L1292.71 1457.07 L1292.71 1460.38 L1283.94 1460.38 L1283.94 1474.45 Q1283.94 1477.62 1284.79 1478.52 Q1285.67 1479.43 1288.33 1479.43 L1292.71 1479.43 L1292.71 1482.99 L1288.33 1482.99 Q1283.4 1482.99 1281.53 1481.16 Q1279.65 1479.31 1279.65 1474.45 L1279.65 1460.38 L1276.53 1460.38 L1276.53 1457.07 L1279.65 1457.07 L1279.65 1449.71 L1283.94 1449.71 Z" fill="#000000" fill-rule="evenodd" fill-opacity="1" /><path clip-path="url(#clip260)" d="M1298.31 1457.07 L1302.57 1457.07 L1302.57 1482.99 L1298.31 1482.99 L1298.31 1457.07 M1298.31 1446.97 L1302.57 1446.97 L1302.57 1452.37 L1298.31 1452.37 L1298.31 1446.97 Z" fill="#000000" fill-rule="evenodd" fill-opacity="1" /><path clip-path="url(#clip260)" d="M1333.03 1467.34 L1333.03 1482.99 L1328.77 1482.99 L1328.77 1467.48 Q1328.77 1463.8 1327.34 1461.97 Q1325.9 1460.14 1323.03 1460.14 Q1319.58 1460.14 1317.59 1462.34 Q1315.6 1464.54 1315.6 1468.34 L1315.6 1482.99 L1311.32 1482.99 L1311.32 1457.07 L1315.6 1457.07 L1315.6 1461.09 Q1317.13 1458.76 1319.19 1457.6 Q1321.27 1456.44 1323.98 1456.44 Q1328.45 1456.44 1330.74 1459.22 Q1333.03 1461.97 1333.03 1467.34 Z" fill="#000000" fill-rule="evenodd" fill-opacity="1" /><path clip-path="url(#clip260)" d="M1358.59 1469.73 Q1358.59 1465.1 1356.67 1462.55 Q1354.77 1460.01 1351.32 1460.01 Q1347.89 1460.01 1345.97 1462.55 Q1344.07 1465.1 1344.07 1469.73 Q1344.07 1474.33 1345.97 1476.88 Q1347.89 1479.43 1351.32 1479.43 Q1354.77 1479.43 1356.67 1476.88 Q1358.59 1474.33 1358.59 1469.73 M1362.85 1479.77 Q1362.85 1486.39 1359.91 1489.61 Q1356.97 1492.85 1350.9 1492.85 Q1348.66 1492.85 1346.67 1492.51 Q1344.68 1492.18 1342.8 1491.49 L1342.8 1487.34 Q1344.68 1488.36 1346.5 1488.85 Q1348.33 1489.33 1350.23 1489.33 Q1354.42 1489.33 1356.5 1487.14 Q1358.59 1484.96 1358.59 1480.54 L1358.59 1478.43 Q1357.27 1480.72 1355.21 1481.86 Q1353.15 1482.99 1350.28 1482.99 Q1345.51 1482.99 1342.59 1479.36 Q1339.68 1475.72 1339.68 1469.73 Q1339.68 1463.71 1342.59 1460.08 Q1345.51 1456.44 1350.28 1456.44 Q1353.15 1456.44 1355.21 1457.58 Q1357.27 1458.71 1358.59 1461 L1358.59 1457.07 L1362.85 1457.07 L1362.85 1479.77 Z" fill="#000000" fill-rule="evenodd" fill-opacity="1" /><path clip-path="url(#clip260)" d="M1376.48 1452.27 L1376.48 1479.15 L1382.13 1479.15 Q1389.28 1479.15 1392.59 1475.91 Q1395.93 1472.67 1395.93 1465.68 Q1395.93 1458.73 1392.59 1455.52 Q1389.28 1452.27 1382.13 1452.27 L1376.48 1452.27 M1371.81 1448.43 L1381.41 1448.43 Q1391.46 1448.43 1396.16 1452.62 Q1400.86 1456.79 1400.86 1465.68 Q1400.86 1474.61 1396.13 1478.8 Q1391.41 1482.99 1381.41 1482.99 L1371.81 1482.99 L1371.81 1448.43 Z" fill="#000000" fill-rule="evenodd" fill-opacity="1" /><path clip-path="url(#clip260)" d="M1408.12 1457.07 L1412.38 1457.07 L1412.38 1482.99 L1408.12 1482.99 L1408.12 1457.07 M1408.12 1446.97 L1412.38 1446.97 L1412.38 1452.37 L1408.12 1452.37 L1408.12 1446.97 Z" fill="#000000" fill-rule="evenodd" fill-opacity="1" /><path clip-path="url(#clip260)" d="M1436.32 1461.05 Q1435.6 1460.63 1434.74 1460.45 Q1433.91 1460.24 1432.89 1460.24 Q1429.28 1460.24 1427.34 1462.6 Q1425.42 1464.94 1425.42 1469.33 L1425.42 1482.99 L1421.13 1482.99 L1421.13 1457.07 L1425.42 1457.07 L1425.42 1461.09 Q1426.76 1458.73 1428.91 1457.6 Q1431.06 1456.44 1434.14 1456.44 Q1434.58 1456.44 1435.12 1456.51 Q1435.65 1456.56 1436.3 1456.67 L1436.32 1461.05 Z" fill="#000000" fill-rule="evenodd" fill-opacity="1" /><path clip-path="url(#clip260)" d="M1461.92 1468.96 L1461.92 1471.05 L1442.34 1471.05 Q1442.62 1475.45 1444.98 1477.76 Q1447.36 1480.05 1451.6 1480.05 Q1454.05 1480.05 1456.34 1479.45 Q1458.66 1478.85 1460.93 1477.64 L1460.93 1481.67 Q1458.63 1482.64 1456.23 1483.15 Q1453.82 1483.66 1451.34 1483.66 Q1445.14 1483.66 1441.5 1480.05 Q1437.89 1476.44 1437.89 1470.28 Q1437.89 1463.92 1441.32 1460.19 Q1444.77 1456.44 1450.6 1456.44 Q1455.83 1456.44 1458.87 1459.82 Q1461.92 1463.18 1461.92 1468.96 M1457.66 1467.71 Q1457.62 1464.22 1455.69 1462.14 Q1453.8 1460.05 1450.65 1460.05 Q1447.08 1460.05 1444.93 1462.07 Q1442.8 1464.08 1442.48 1467.74 L1457.66 1467.71 Z" fill="#000000" fill-rule="evenodd" fill-opacity="1" /><path clip-path="url(#clip260)" d="M1487.57 1458.06 L1487.57 1462.04 Q1485.76 1461.05 1483.93 1460.56 Q1482.13 1460.05 1480.28 1460.05 Q1476.13 1460.05 1473.84 1462.69 Q1471.55 1465.31 1471.55 1470.05 Q1471.55 1474.8 1473.84 1477.44 Q1476.13 1480.05 1480.28 1480.05 Q1482.13 1480.05 1483.93 1479.57 Q1485.76 1479.06 1487.57 1478.06 L1487.57 1482 Q1485.79 1482.83 1483.86 1483.25 Q1481.97 1483.66 1479.81 1483.66 Q1473.96 1483.66 1470.51 1479.98 Q1467.06 1476.3 1467.06 1470.05 Q1467.06 1463.71 1470.53 1460.08 Q1474.03 1456.44 1480.09 1456.44 Q1482.06 1456.44 1483.93 1456.86 Q1485.81 1457.25 1487.57 1458.06 Z" fill="#000000" fill-rule="evenodd" fill-opacity="1" /><path clip-path="url(#clip260)" d="M1499.19 1449.71 L1499.19 1457.07 L1507.96 1457.07 L1507.96 1460.38 L1499.19 1460.38 L1499.19 1474.45 Q1499.19 1477.62 1500.05 1478.52 Q1500.93 1479.43 1503.59 1479.43 L1507.96 1479.43 L1507.96 1482.99 L1503.59 1482.99 Q1498.66 1482.99 1496.78 1481.16 Q1494.91 1479.31 1494.91 1474.45 L1494.91 1460.38 L1491.78 1460.38 L1491.78 1457.07 L1494.91 1457.07 L1494.91 1449.71 L1499.19 1449.71 Z" fill="#000000" fill-rule="evenodd" fill-opacity="1" /><path clip-path="url(#clip260)" d="M1536.44 1448.43 L1542.74 1448.43 L1558.06 1477.34 L1558.06 1448.43 L1562.6 1448.43 L1562.6 1482.99 L1556.31 1482.99 L1540.98 1454.08 L1540.98 1482.99 L1536.44 1482.99 L1536.44 1448.43 Z" fill="#000000" fill-rule="evenodd" fill-opacity="1" /><path clip-path="url(#clip260)" d="M1588.3 1466.79 Q1589.8 1467.3 1591.21 1468.96 Q1592.65 1470.63 1594.08 1473.55 L1598.83 1482.99 L1593.81 1482.99 L1589.38 1474.13 Q1587.67 1470.65 1586.05 1469.52 Q1584.45 1468.39 1581.68 1468.39 L1576.58 1468.39 L1576.58 1482.99 L1571.91 1482.99 L1571.91 1448.43 L1582.46 1448.43 Q1588.39 1448.43 1591.31 1450.91 Q1594.22 1453.39 1594.22 1458.39 Q1594.22 1461.65 1592.69 1463.8 Q1591.19 1465.95 1588.3 1466.79 M1576.58 1452.27 L1576.58 1464.54 L1582.46 1464.54 Q1585.84 1464.54 1587.56 1462.99 Q1589.29 1461.42 1589.29 1458.39 Q1589.29 1455.35 1587.56 1453.83 Q1585.84 1452.27 1582.46 1452.27 L1576.58 1452.27 Z" fill="#000000" fill-rule="evenodd" fill-opacity="1" /><path clip-path="url(#clip260)" d="M1604.85 1448.43 L1611.81 1448.43 L1620.63 1471.95 L1629.5 1448.43 L1636.47 1448.43 L1636.47 1482.99 L1631.91 1482.99 L1631.91 1452.64 L1622.99 1476.35 L1618.3 1476.35 L1609.38 1452.64 L1609.38 1482.99 L1604.85 1482.99 L1604.85 1448.43 Z" fill="#000000" fill-rule="evenodd" fill-opacity="1" /><path clip-path="url(#clip260)" d="M1722.73 1452.27 L1722.73 1479.15 L1728.37 1479.15 Q1735.53 1479.15 1738.84 1475.91 Q1742.17 1472.67 1742.17 1465.68 Q1742.17 1458.73 1738.84 1455.52 Q1735.53 1452.27 1728.37 1452.27 L1722.73 1452.27 M1718.05 1448.43 L1727.66 1448.43 Q1737.7 1448.43 1742.4 1452.62 Q1747.1 1456.79 1747.1 1465.68 Q1747.1 1474.61 1742.38 1478.8 Q1737.66 1482.99 1727.66 1482.99 L1718.05 1482.99 L1718.05 1448.43 Z" fill="#000000" fill-rule="evenodd" fill-opacity="1" /><path clip-path="url(#clip260)" d="M1754.37 1457.07 L1758.63 1457.07 L1758.63 1482.99 L1754.37 1482.99 L1754.37 1457.07 M1754.37 1446.97 L1758.63 1446.97 L1758.63 1452.37 L1754.37 1452.37 L1754.37 1446.97 Z" fill="#000000" fill-rule="evenodd" fill-opacity="1" /><path clip-path="url(#clip260)" d="M1782.56 1461.05 Q1781.85 1460.63 1780.99 1460.45 Q1780.16 1460.24 1779.14 1460.24 Q1775.53 1460.24 1773.58 1462.6 Q1771.66 1464.94 1771.66 1469.33 L1771.66 1482.99 L1767.38 1482.99 L1767.38 1457.07 L1771.66 1457.07 L1771.66 1461.09 Q1773 1458.73 1775.16 1457.6 Q1777.31 1456.44 1780.39 1456.44 Q1780.83 1456.44 1781.36 1456.51 Q1781.89 1456.56 1782.54 1456.67 L1782.56 1461.05 Z" fill="#000000" fill-rule="evenodd" fill-opacity="1" /><path clip-path="url(#clip260)" d="M1808.17 1468.96 L1808.17 1471.05 L1788.58 1471.05 Q1788.86 1475.45 1791.22 1477.76 Q1793.61 1480.05 1797.84 1480.05 Q1800.3 1480.05 1802.59 1479.45 Q1804.9 1478.85 1807.17 1477.64 L1807.17 1481.67 Q1804.88 1482.64 1802.47 1483.15 Q1800.06 1483.66 1797.59 1483.66 Q1791.38 1483.66 1787.75 1480.05 Q1784.14 1476.44 1784.14 1470.28 Q1784.14 1463.92 1787.56 1460.19 Q1791.01 1456.44 1796.85 1456.44 Q1802.08 1456.44 1805.11 1459.82 Q1808.17 1463.18 1808.17 1468.96 M1803.91 1467.71 Q1803.86 1464.22 1801.94 1462.14 Q1800.04 1460.05 1796.89 1460.05 Q1793.33 1460.05 1791.18 1462.07 Q1789.05 1464.08 1788.72 1467.74 L1803.91 1467.71 Z" fill="#000000" fill-rule="evenodd" fill-opacity="1" /><path clip-path="url(#clip260)" d="M1833.81 1458.06 L1833.81 1462.04 Q1832.01 1461.05 1830.18 1460.56 Q1828.37 1460.05 1826.52 1460.05 Q1822.38 1460.05 1820.09 1462.69 Q1817.8 1465.31 1817.8 1470.05 Q1817.8 1474.8 1820.09 1477.44 Q1822.38 1480.05 1826.52 1480.05 Q1828.37 1480.05 1830.18 1479.57 Q1832.01 1479.06 1833.81 1478.06 L1833.81 1482 Q1832.03 1482.83 1830.11 1483.25 Q1828.21 1483.66 1826.06 1483.66 Q1820.2 1483.66 1816.75 1479.98 Q1813.3 1476.3 1813.3 1470.05 Q1813.3 1463.71 1816.78 1460.08 Q1820.27 1456.44 1826.34 1456.44 Q1828.3 1456.44 1830.18 1456.86 Q1832.05 1457.25 1833.81 1458.06 Z" fill="#000000" fill-rule="evenodd" fill-opacity="1" /><path clip-path="url(#clip260)" d="M1845.43 1449.71 L1845.43 1457.07 L1854.21 1457.07 L1854.21 1460.38 L1845.43 1460.38 L1845.43 1474.45 Q1845.43 1477.62 1846.29 1478.52 Q1847.17 1479.43 1849.83 1479.43 L1854.21 1479.43 L1854.21 1482.99 L1849.83 1482.99 Q1844.9 1482.99 1843.03 1481.16 Q1841.15 1479.31 1841.15 1474.45 L1841.15 1460.38 L1838.03 1460.38 L1838.03 1457.07 L1841.15 1457.07 L1841.15 1449.71 L1845.43 1449.71 Z" fill="#000000" fill-rule="evenodd" fill-opacity="1" /><path clip-path="url(#clip260)" d="M1885.87 1451.09 L1885.87 1456.02 Q1883.51 1453.83 1880.83 1452.74 Q1878.17 1451.65 1875.16 1451.65 Q1869.23 1451.65 1866.08 1455.28 Q1862.93 1458.89 1862.93 1465.75 Q1862.93 1472.58 1866.08 1476.21 Q1869.23 1479.82 1875.16 1479.82 Q1878.17 1479.82 1880.83 1478.73 Q1883.51 1477.64 1885.87 1475.45 L1885.87 1480.33 Q1883.42 1482 1880.67 1482.83 Q1877.93 1483.66 1874.88 1483.66 Q1867.03 1483.66 1862.52 1478.87 Q1858 1474.06 1858 1465.75 Q1858 1457.41 1862.52 1452.62 Q1867.03 1447.81 1874.88 1447.81 Q1877.98 1447.81 1880.71 1448.64 Q1883.47 1449.45 1885.87 1451.09 Z" fill="#000000" fill-rule="evenodd" fill-opacity="1" /><path clip-path="url(#clip260)" d="M1909.48 1466.79 Q1910.99 1467.3 1912.4 1468.96 Q1913.84 1470.63 1915.27 1473.55 L1920.02 1482.99 L1914.99 1482.99 L1910.57 1474.13 Q1908.86 1470.65 1907.24 1469.52 Q1905.64 1468.39 1902.86 1468.39 L1897.77 1468.39 L1897.77 1482.99 L1893.1 1482.99 L1893.1 1448.43 L1903.65 1448.43 Q1909.58 1448.43 1912.49 1450.91 Q1915.41 1453.39 1915.41 1458.39 Q1915.41 1461.65 1913.88 1463.8 Q1912.38 1465.95 1909.48 1466.79 M1897.77 1452.27 L1897.77 1464.54 L1903.65 1464.54 Q1907.03 1464.54 1908.74 1462.99 Q1910.48 1461.42 1910.48 1458.39 Q1910.48 1455.35 1908.74 1453.83 Q1907.03 1452.27 1903.65 1452.27 L1897.77 1452.27 Z" fill="#000000" fill-rule="evenodd" fill-opacity="1" /><path clip-path="url(#clip260)" d="M2007.31 1466.79 Q2008.81 1467.3 2010.22 1468.96 Q2011.66 1470.63 2013.09 1473.55 L2017.84 1482.99 L2012.82 1482.99 L2008.4 1474.13 Q2006.68 1470.65 2005.06 1469.52 Q2003.46 1468.39 2000.69 1468.39 L1995.59 1468.39 L1995.59 1482.99 L1990.92 1482.99 L1990.92 1448.43 L2001.47 1448.43 Q2007.4 1448.43 2010.32 1450.91 Q2013.23 1453.39 2013.23 1458.39 Q2013.23 1461.65 2011.71 1463.8 Q2010.2 1465.95 2007.31 1466.79 M1995.59 1452.27 L1995.59 1464.54 L2001.47 1464.54 Q2004.85 1464.54 2006.57 1462.99 Q2008.3 1461.42 2008.3 1458.39 Q2008.3 1455.35 2006.57 1453.83 Q2004.85 1452.27 2001.47 1452.27 L1995.59 1452.27 Z" fill="#000000" fill-rule="evenodd" fill-opacity="1" /><path clip-path="url(#clip260)" d="M2044.58 1449.57 L2044.58 1454.13 Q2041.91 1452.85 2039.55 1452.23 Q2037.19 1451.6 2034.99 1451.6 Q2031.17 1451.6 2029.09 1453.08 Q2027.03 1454.57 2027.03 1457.3 Q2027.03 1459.59 2028.39 1460.77 Q2029.78 1461.93 2033.63 1462.64 L2036.45 1463.22 Q2041.68 1464.22 2044.16 1466.74 Q2046.66 1469.24 2046.66 1473.45 Q2046.66 1478.48 2043.28 1481.07 Q2039.92 1483.66 2033.42 1483.66 Q2030.96 1483.66 2028.19 1483.11 Q2025.43 1482.55 2022.47 1481.46 L2022.47 1476.65 Q2025.32 1478.25 2028.05 1479.06 Q2030.78 1479.87 2033.42 1479.87 Q2037.42 1479.87 2039.6 1478.29 Q2041.77 1476.72 2041.77 1473.8 Q2041.77 1471.26 2040.2 1469.82 Q2038.65 1468.39 2035.08 1467.67 L2032.24 1467.11 Q2027.01 1466.07 2024.67 1463.85 Q2022.33 1461.63 2022.33 1457.67 Q2022.33 1453.08 2025.55 1450.45 Q2028.79 1447.81 2034.46 1447.81 Q2036.89 1447.81 2039.41 1448.25 Q2041.94 1448.69 2044.58 1449.57 Z" fill="#000000" fill-rule="evenodd" fill-opacity="1" /><path clip-path="url(#clip260)" d="M2074.67 1449.57 L2074.67 1454.13 Q2072.01 1452.85 2069.64 1452.23 Q2067.28 1451.6 2065.08 1451.6 Q2061.27 1451.6 2059.18 1453.08 Q2057.12 1454.57 2057.12 1457.3 Q2057.12 1459.59 2058.49 1460.77 Q2059.88 1461.93 2063.72 1462.64 L2066.54 1463.22 Q2071.77 1464.22 2074.25 1466.74 Q2076.75 1469.24 2076.75 1473.45 Q2076.75 1478.48 2073.37 1481.07 Q2070.02 1483.66 2063.51 1483.66 Q2061.06 1483.66 2058.28 1483.11 Q2055.52 1482.55 2052.56 1481.46 L2052.56 1476.65 Q2055.41 1478.25 2058.14 1479.06 Q2060.87 1479.87 2063.51 1479.87 Q2067.52 1479.87 2069.69 1478.29 Q2071.87 1476.72 2071.87 1473.8 Q2071.87 1471.26 2070.29 1469.82 Q2068.74 1468.39 2065.18 1467.67 L2062.33 1467.11 Q2057.1 1466.07 2054.76 1463.85 Q2052.42 1461.63 2052.42 1457.67 Q2052.42 1453.08 2055.64 1450.45 Q2058.88 1447.81 2064.55 1447.81 Q2066.98 1447.81 2069.51 1448.25 Q2072.03 1448.69 2074.67 1449.57 Z" fill="#000000" fill-rule="evenodd" fill-opacity="1" /><path clip-path="url(#clip260)" d="M2096.47 1453.04 L2090.13 1470.24 L2102.84 1470.24 L2096.47 1453.04 M2093.83 1448.43 L2099.14 1448.43 L2112.31 1482.99 L2107.45 1482.99 L2104.3 1474.13 L2088.72 1474.13 L2085.57 1482.99 L2080.64 1482.99 L2093.83 1448.43 Z" fill="#000000" fill-rule="evenodd" fill-opacity="1" /><polyline clip-path="url(#clip262)" style="stroke:#000000; stroke-linecap:butt; stroke-linejoin:round; stroke-width:2; stroke-opacity:0.1; fill:none" points="
  218.42,1386.31 2256.76,1386.31 
  "/>
<polyline clip-path="url(#clip262)" style="stroke:#000000; stroke-linecap:butt; stroke-linejoin:round; stroke-width:2; stroke-opacity:0.1; fill:none" points="
  218.42,988.352 2256.76,988.352 
  "/>
<polyline clip-path="url(#clip262)" style="stroke:#000000; stroke-linecap:butt; stroke-linejoin:round; stroke-width:2; stroke-opacity:0.1; fill:none" points="
  218.42,590.397 2256.76,590.397 
  "/>
<polyline clip-path="url(#clip262)" style="stroke:#000000; stroke-linecap:butt; stroke-linejoin:round; stroke-width:2; stroke-opacity:0.1; fill:none" points="
  218.42,192.442 2256.76,192.442 
  "/>
<polyline clip-path="url(#clip260)" style="stroke:#000000; stroke-linecap:butt; stroke-linejoin:round; stroke-width:4; stroke-opacity:1; fill:none" points="
  218.42,1423.09 218.42,123.472 
  "/>
<polyline clip-path="url(#clip260)" style="stroke:#000000; stroke-linecap:butt; stroke-linejoin:round; stroke-width:4; stroke-opacity:1; fill:none" points="
  218.42,1386.31 242.88,1386.31 
  "/>
<polyline clip-path="url(#clip260)" style="stroke:#000000; stroke-linecap:butt; stroke-linejoin:round; stroke-width:4; stroke-opacity:1; fill:none" points="
  218.42,988.352 242.88,988.352 
  "/>
<polyline clip-path="url(#clip260)" style="stroke:#000000; stroke-linecap:butt; stroke-linejoin:round; stroke-width:4; stroke-opacity:1; fill:none" points="
  218.42,590.397 242.88,590.397 
  "/>
<polyline clip-path="url(#clip260)" style="stroke:#000000; stroke-linecap:butt; stroke-linejoin:round; stroke-width:4; stroke-opacity:1; fill:none" points="
  218.42,192.442 242.88,192.442 
  "/>
<path clip-path="url(#clip260)" d="M126.685 1372.1 Q123.073 1372.1 121.245 1375.67 Q119.439 1379.21 119.439 1386.34 Q119.439 1393.45 121.245 1397.01 Q123.073 1400.55 126.685 1400.55 Q130.319 1400.55 132.124 1397.01 Q133.953 1393.45 133.953 1386.34 Q133.953 1379.21 132.124 1375.67 Q130.319 1372.1 126.685 1372.1 M126.685 1368.4 Q132.495 1368.4 135.55 1373.01 Q138.629 1377.59 138.629 1386.34 Q138.629 1395.07 135.55 1399.67 Q132.495 1404.26 126.685 1404.26 Q120.874 1404.26 117.796 1399.67 Q114.74 1395.07 114.74 1386.34 Q114.74 1377.59 117.796 1373.01 Q120.874 1368.4 126.685 1368.4 Z" fill="#000000" fill-rule="evenodd" fill-opacity="1" /><path clip-path="url(#clip260)" d="M146.846 1397.71 L151.731 1397.71 L151.731 1403.59 L146.846 1403.59 L146.846 1397.71 Z" fill="#000000" fill-rule="evenodd" fill-opacity="1" /><path clip-path="url(#clip260)" d="M171.916 1372.1 Q168.305 1372.1 166.476 1375.67 Q164.67 1379.21 164.67 1386.34 Q164.67 1393.45 166.476 1397.01 Q168.305 1400.55 171.916 1400.55 Q175.55 1400.55 177.356 1397.01 Q179.184 1393.45 179.184 1386.34 Q179.184 1379.21 177.356 1375.67 Q175.55 1372.1 171.916 1372.1 M171.916 1368.4 Q177.726 1368.4 180.781 1373.01 Q183.86 1377.59 183.86 1386.34 Q183.86 1395.07 180.781 1399.67 Q177.726 1404.26 171.916 1404.26 Q166.106 1404.26 163.027 1399.67 Q159.971 1395.07 159.971 1386.34 Q159.971 1377.59 163.027 1373.01 Q166.106 1368.4 171.916 1368.4 Z" fill="#000000" fill-rule="evenodd" fill-opacity="1" /><path clip-path="url(#clip260)" d="M127.68 974.15 Q124.069 974.15 122.24 977.715 Q120.435 981.257 120.435 988.386 Q120.435 995.493 122.24 999.058 Q124.069 1002.6 127.68 1002.6 Q131.314 1002.6 133.12 999.058 Q134.948 995.493 134.948 988.386 Q134.948 981.257 133.12 977.715 Q131.314 974.15 127.68 974.15 M127.68 970.447 Q133.49 970.447 136.546 975.053 Q139.624 979.636 139.624 988.386 Q139.624 997.113 136.546 1001.72 Q133.49 1006.3 127.68 1006.3 Q121.87 1006.3 118.791 1001.72 Q115.736 997.113 115.736 988.386 Q115.736 979.636 118.791 975.053 Q121.87 970.447 127.68 970.447 Z" fill="#000000" fill-rule="evenodd" fill-opacity="1" /><path clip-path="url(#clip260)" d="M147.842 999.752 L152.726 999.752 L152.726 1005.63 L147.842 1005.63 L147.842 999.752 Z" fill="#000000" fill-rule="evenodd" fill-opacity="1" /><path clip-path="url(#clip260)" d="M162.957 971.072 L181.314 971.072 L181.314 975.007 L167.24 975.007 L167.24 983.479 Q168.258 983.132 169.277 982.97 Q170.295 982.784 171.314 982.784 Q177.101 982.784 180.481 985.956 Q183.86 989.127 183.86 994.544 Q183.86 1000.12 180.388 1003.22 Q176.916 1006.3 170.596 1006.3 Q168.42 1006.3 166.152 1005.93 Q163.907 1005.56 161.499 1004.82 L161.499 1000.12 Q163.582 1001.26 165.805 1001.81 Q168.027 1002.37 170.504 1002.37 Q174.508 1002.37 176.846 1000.26 Q179.184 998.155 179.184 994.544 Q179.184 990.933 176.846 988.826 Q174.508 986.72 170.504 986.72 Q168.629 986.72 166.754 987.136 Q164.902 987.553 162.957 988.433 L162.957 971.072 Z" fill="#000000" fill-rule="evenodd" fill-opacity="1" /><path clip-path="url(#clip260)" d="M117.495 603.742 L125.134 603.742 L125.134 577.376 L116.823 579.043 L116.823 574.784 L125.087 573.117 L129.763 573.117 L129.763 603.742 L137.402 603.742 L137.402 607.677 L117.495 607.677 L117.495 603.742 Z" fill="#000000" fill-rule="evenodd" fill-opacity="1" /><path clip-path="url(#clip260)" d="M146.846 601.797 L151.731 601.797 L151.731 607.677 L146.846 607.677 L146.846 601.797 Z" fill="#000000" fill-rule="evenodd" fill-opacity="1" /><path clip-path="url(#clip260)" d="M171.916 576.196 Q168.305 576.196 166.476 579.76 Q164.67 583.302 164.67 590.432 Q164.67 597.538 166.476 601.103 Q168.305 604.645 171.916 604.645 Q175.55 604.645 177.356 601.103 Q179.184 597.538 179.184 590.432 Q179.184 583.302 177.356 579.76 Q175.55 576.196 171.916 576.196 M171.916 572.492 Q177.726 572.492 180.781 577.098 Q183.86 581.682 183.86 590.432 Q183.86 599.158 180.781 603.765 Q177.726 608.348 171.916 608.348 Q166.106 608.348 163.027 603.765 Q159.971 599.158 159.971 590.432 Q159.971 581.682 163.027 577.098 Q166.106 572.492 171.916 572.492 Z" fill="#000000" fill-rule="evenodd" fill-opacity="1" /><path clip-path="url(#clip260)" d="M118.49 205.787 L126.129 205.787 L126.129 179.421 L117.819 181.088 L117.819 176.829 L126.083 175.162 L130.759 175.162 L130.759 205.787 L138.397 205.787 L138.397 209.722 L118.49 209.722 L118.49 205.787 Z" fill="#000000" fill-rule="evenodd" fill-opacity="1" /><path clip-path="url(#clip260)" d="M147.842 203.843 L152.726 203.843 L152.726 209.722 L147.842 209.722 L147.842 203.843 Z" fill="#000000" fill-rule="evenodd" fill-opacity="1" /><path clip-path="url(#clip260)" d="M162.957 175.162 L181.314 175.162 L181.314 179.097 L167.24 179.097 L167.24 187.57 Q168.258 187.222 169.277 187.06 Q170.295 186.875 171.314 186.875 Q177.101 186.875 180.481 190.046 Q183.86 193.218 183.86 198.634 Q183.86 204.213 180.388 207.315 Q176.916 210.393 170.596 210.393 Q168.42 210.393 166.152 210.023 Q163.907 209.653 161.499 208.912 L161.499 204.213 Q163.582 205.347 165.805 205.903 Q168.027 206.458 170.504 206.458 Q174.508 206.458 176.846 204.352 Q179.184 202.245 179.184 198.634 Q179.184 195.023 176.846 192.917 Q174.508 190.81 170.504 190.81 Q168.629 190.81 166.754 191.227 Q164.902 191.644 162.957 192.523 L162.957 175.162 Z" fill="#000000" fill-rule="evenodd" fill-opacity="1" /><path clip-path="url(#clip260)" d="M37.1193 1148.06 Q33.1726 1145.86 31.2947 1142.81 Q29.4168 1139.75 29.4168 1135.62 Q29.4168 1130.05 33.3317 1127.02 Q37.2148 1124 44.4081 1124 L65.9242 1124 L65.9242 1129.89 L44.599 1129.89 Q39.4746 1129.89 36.992 1131.7 Q34.5094 1133.52 34.5094 1137.24 Q34.5094 1141.79 37.5331 1144.43 Q40.5568 1147.07 45.7767 1147.07 L65.9242 1147.07 L65.9242 1152.96 L44.599 1152.96 Q39.4428 1152.96 36.992 1154.78 Q34.5094 1156.59 34.5094 1160.38 Q34.5094 1164.87 37.5649 1167.51 Q40.5886 1170.15 45.7767 1170.15 L65.9242 1170.15 L65.9242 1176.04 L30.2762 1176.04 L30.2762 1170.15 L35.8144 1170.15 Q32.536 1168.14 30.9764 1165.34 Q29.4168 1162.54 29.4168 1158.69 Q29.4168 1154.81 31.3902 1152.1 Q33.3636 1149.37 37.1193 1148.06 Z" fill="#000000" fill-rule="evenodd" fill-opacity="1" /><path clip-path="url(#clip260)" d="M46.6361 1081.83 L49.5006 1081.83 L49.5006 1108.75 Q55.5481 1108.37 58.7309 1105.12 Q61.8819 1101.85 61.8819 1096.02 Q61.8819 1092.65 61.0544 1089.5 Q60.2269 1086.31 58.5718 1083.19 L64.1099 1083.19 Q65.4467 1086.35 66.147 1089.66 Q66.8472 1092.97 66.8472 1096.37 Q66.8472 1104.9 61.8819 1109.9 Q56.9167 1114.86 48.4503 1114.86 Q39.6974 1114.86 34.5731 1110.15 Q29.4168 1105.41 29.4168 1097.39 Q29.4168 1090.2 34.0638 1086.03 Q38.6789 1081.83 46.6361 1081.83 M44.9173 1087.68 Q40.1112 1087.75 37.2466 1090.39 Q34.3821 1093 34.3821 1097.33 Q34.3821 1102.23 37.1512 1105.19 Q39.9202 1108.12 44.9492 1108.56 L44.9173 1087.68 Z" fill="#000000" fill-rule="evenodd" fill-opacity="1" /><path clip-path="url(#clip260)" d="M35.6871 1048.76 L16.399 1048.76 L16.399 1042.9 L65.9242 1042.9 L65.9242 1048.76 L60.577 1048.76 Q63.7598 1050.6 65.3194 1053.43 Q66.8472 1056.24 66.8472 1060.18 Q66.8472 1066.64 61.691 1070.72 Q56.5347 1074.76 48.132 1074.76 Q39.7293 1074.76 34.5731 1070.72 Q29.4168 1066.64 29.4168 1060.18 Q29.4168 1056.24 30.9764 1053.43 Q32.5042 1050.6 35.6871 1048.76 M48.132 1068.71 Q54.5932 1068.71 58.2853 1066.07 Q61.9456 1063.4 61.9456 1058.75 Q61.9456 1054.1 58.2853 1051.43 Q54.5932 1048.76 48.132 1048.76 Q41.6708 1048.76 38.0105 1051.43 Q34.3184 1054.1 34.3184 1058.75 Q34.3184 1063.4 38.0105 1066.07 Q41.6708 1068.71 48.132 1068.71 Z" fill="#000000" fill-rule="evenodd" fill-opacity="1" /><path clip-path="url(#clip260)" d="M30.2762 1030.84 L30.2762 1024.98 L65.9242 1024.98 L65.9242 1030.84 L30.2762 1030.84 M16.399 1030.84 L16.399 1024.98 L23.815 1024.98 L23.815 1030.84 L16.399 1030.84 Z" fill="#000000" fill-rule="evenodd" fill-opacity="1" /><path clip-path="url(#clip260)" d="M48.0047 996.525 Q48.0047 1003.62 49.6279 1006.36 Q51.2512 1009.1 55.1661 1009.1 Q58.2853 1009.1 60.1314 1007.06 Q61.9456 1004.99 61.9456 1001.46 Q61.9456 996.589 58.5081 993.661 Q55.0388 990.701 49.3097 990.701 L48.0047 990.701 L48.0047 996.525 M45.5857 984.844 L65.9242 984.844 L65.9242 990.701 L60.5133 990.701 Q63.7598 992.706 65.3194 995.698 Q66.8472 998.69 66.8472 1003.02 Q66.8472 1008.49 63.7916 1011.74 Q60.7043 1014.95 55.5481 1014.95 Q49.5325 1014.95 46.4769 1010.94 Q43.4214 1006.9 43.4214 998.912 L43.4214 990.701 L42.8485 990.701 Q38.8062 990.701 36.6101 993.374 Q34.3821 996.016 34.3821 1000.82 Q34.3821 1003.88 35.1141 1006.77 Q35.8462 1009.67 37.3103 1012.34 L31.8995 1012.34 Q30.6581 1009.13 30.0534 1006.11 Q29.4168 1003.08 29.4168 1000.22 Q29.4168 992.483 33.4272 988.664 Q37.4376 984.844 45.5857 984.844 Z" fill="#000000" fill-rule="evenodd" fill-opacity="1" /><path clip-path="url(#clip260)" d="M44.4081 943.149 L65.9242 943.149 L65.9242 949.005 L44.599 949.005 Q39.5383 949.005 37.0238 950.979 Q34.5094 952.952 34.5094 956.899 Q34.5094 961.641 37.5331 964.379 Q40.5568 967.116 45.7767 967.116 L65.9242 967.116 L65.9242 973.004 L30.2762 973.004 L30.2762 967.116 L35.8144 967.116 Q32.5997 965.015 31.0083 962.182 Q29.4168 959.318 29.4168 955.594 Q29.4168 949.451 33.2363 946.3 Q37.0238 943.149 44.4081 943.149 Z" fill="#000000" fill-rule="evenodd" fill-opacity="1" /><path clip-path="url(#clip260)" d="M35.7507 890.091 Q35.1778 891.077 34.9232 892.255 Q34.6367 893.401 34.6367 894.801 Q34.6367 899.767 37.8832 902.44 Q41.0979 905.082 47.1453 905.082 L65.9242 905.082 L65.9242 910.97 L30.2762 910.97 L30.2762 905.082 L35.8144 905.082 Q32.5679 903.236 31.0083 900.276 Q29.4168 897.316 29.4168 893.083 Q29.4168 892.478 29.5123 891.746 Q29.576 891.014 29.7351 890.123 L35.7507 890.091 Z" fill="#000000" fill-rule="evenodd" fill-opacity="1" /><path clip-path="url(#clip260)" d="M46.6361 854.888 L49.5006 854.888 L49.5006 881.815 Q55.5481 881.433 58.7309 878.187 Q61.8819 874.909 61.8819 869.084 Q61.8819 865.71 61.0544 862.559 Q60.2269 859.376 58.5718 856.257 L64.1099 856.257 Q65.4467 859.408 66.147 862.718 Q66.8472 866.028 66.8472 869.434 Q66.8472 877.964 61.8819 882.961 Q56.9167 887.926 48.4503 887.926 Q39.6974 887.926 34.5731 883.216 Q29.4168 878.473 29.4168 870.453 Q29.4168 863.259 34.0638 859.09 Q38.6789 854.888 46.6361 854.888 M44.9173 860.745 Q40.1112 860.808 37.2466 863.45 Q34.3821 866.06 34.3821 870.389 Q34.3821 875.29 37.1512 878.251 Q39.9202 881.179 44.9492 881.624 L44.9173 860.745 Z" fill="#000000" fill-rule="evenodd" fill-opacity="1" /><path clip-path="url(#clip260)" d="M16.399 845.276 L16.399 839.42 L65.9242 839.42 L65.9242 845.276 L16.399 845.276 Z" fill="#000000" fill-rule="evenodd" fill-opacity="1" /><path clip-path="url(#clip260)" d="M48.0047 810.965 Q48.0047 818.063 49.6279 820.8 Q51.2512 823.537 55.1661 823.537 Q58.2853 823.537 60.1314 821.5 Q61.9456 819.431 61.9456 815.898 Q61.9456 811.029 58.5081 808.1 Q55.0388 805.14 49.3097 805.14 L48.0047 805.14 L48.0047 810.965 M45.5857 799.284 L65.9242 799.284 L65.9242 805.14 L60.5133 805.14 Q63.7598 807.146 65.3194 810.137 Q66.8472 813.129 66.8472 817.458 Q66.8472 822.933 63.7916 826.179 Q60.7043 829.394 55.5481 829.394 Q49.5325 829.394 46.4769 825.383 Q43.4214 821.341 43.4214 813.352 L43.4214 805.14 L42.8485 805.14 Q38.8062 805.14 36.6101 807.814 Q34.3821 810.456 34.3821 815.262 Q34.3821 818.317 35.1141 821.214 Q35.8462 824.11 37.3103 826.784 L31.8995 826.784 Q30.6581 823.569 30.0534 820.545 Q29.4168 817.522 29.4168 814.657 Q29.4168 806.923 33.4272 803.103 Q37.4376 799.284 45.5857 799.284 Z" fill="#000000" fill-rule="evenodd" fill-opacity="1" /><path clip-path="url(#clip260)" d="M20.1547 781.428 L30.2762 781.428 L30.2762 769.365 L34.8277 769.365 L34.8277 781.428 L54.1794 781.428 Q58.5399 781.428 59.7813 780.25 Q61.0226 779.041 61.0226 775.381 L61.0226 769.365 L65.9242 769.365 L65.9242 775.381 Q65.9242 782.16 63.4097 784.738 Q60.8634 787.316 54.1794 787.316 L34.8277 787.316 L34.8277 791.613 L30.2762 791.613 L30.2762 787.316 L20.1547 787.316 L20.1547 781.428 Z" fill="#000000" fill-rule="evenodd" fill-opacity="1" /><path clip-path="url(#clip260)" d="M30.2762 761.663 L30.2762 755.806 L65.9242 755.806 L65.9242 761.663 L30.2762 761.663 M16.399 761.663 L16.399 755.806 L23.815 755.806 L23.815 761.663 L16.399 761.663 Z" fill="#000000" fill-rule="evenodd" fill-opacity="1" /><path clip-path="url(#clip260)" d="M30.2762 747.754 L30.2762 741.547 L60.195 730.407 L30.2762 719.267 L30.2762 713.06 L65.9242 726.428 L65.9242 734.386 L30.2762 747.754 Z" fill="#000000" fill-rule="evenodd" fill-opacity="1" /><path clip-path="url(#clip260)" d="M46.6361 674.484 L49.5006 674.484 L49.5006 701.411 Q55.5481 701.029 58.7309 697.783 Q61.8819 694.504 61.8819 688.68 Q61.8819 685.306 61.0544 682.155 Q60.2269 678.972 58.5718 675.853 L64.1099 675.853 Q65.4467 679.004 66.147 682.314 Q66.8472 685.624 66.8472 689.03 Q66.8472 697.56 61.8819 702.557 Q56.9167 707.522 48.4503 707.522 Q39.6974 707.522 34.5731 702.812 Q29.4168 698.069 29.4168 690.048 Q29.4168 682.855 34.0638 678.686 Q38.6789 674.484 46.6361 674.484 M44.9173 680.341 Q40.1112 680.404 37.2466 683.046 Q34.3821 685.656 34.3821 689.985 Q34.3821 694.886 37.1512 697.846 Q39.9202 700.775 44.9492 701.22 L44.9173 680.341 Z" fill="#000000" fill-rule="evenodd" fill-opacity="1" /><path clip-path="url(#clip260)" d="M20.1547 638.359 L30.2762 638.359 L30.2762 626.296 L34.8277 626.296 L34.8277 638.359 L54.1794 638.359 Q58.5399 638.359 59.7813 637.181 Q61.0226 635.972 61.0226 632.311 L61.0226 626.296 L65.9242 626.296 L65.9242 632.311 Q65.9242 639.091 63.4097 641.669 Q60.8634 644.247 54.1794 644.247 L34.8277 644.247 L34.8277 648.544 L30.2762 648.544 L30.2762 644.247 L20.1547 644.247 L20.1547 638.359 Z" fill="#000000" fill-rule="evenodd" fill-opacity="1" /><path clip-path="url(#clip260)" d="M34.3821 604.78 Q34.3821 609.49 38.0742 612.228 Q41.7345 614.965 48.132 614.965 Q54.5295 614.965 58.2217 612.259 Q61.8819 609.522 61.8819 604.78 Q61.8819 600.101 58.1898 597.364 Q54.4977 594.626 48.132 594.626 Q41.7981 594.626 38.106 597.364 Q34.3821 600.101 34.3821 604.78 M29.4168 604.78 Q29.4168 597.141 34.3821 592.78 Q39.3473 588.42 48.132 588.42 Q56.8849 588.42 61.8819 592.78 Q66.8472 597.141 66.8472 604.78 Q66.8472 612.45 61.8819 616.811 Q56.8849 621.14 48.132 621.14 Q39.3473 621.14 34.3821 616.811 Q29.4168 612.45 29.4168 604.78 Z" fill="#000000" fill-rule="evenodd" fill-opacity="1" /><path clip-path="url(#clip260)" d="M23.6877 551.308 L60.6406 551.308 L60.6406 543.542 Q60.6406 533.707 56.1846 529.155 Q51.7286 524.572 42.1164 524.572 Q32.5679 524.572 28.1437 529.155 Q23.6877 533.707 23.6877 543.542 L23.6877 551.308 M18.4042 557.737 L18.4042 544.528 Q18.4042 530.715 24.1651 524.254 Q29.8943 517.792 42.1164 517.792 Q54.4022 517.792 60.1632 524.285 Q65.9242 530.778 65.9242 544.528 L65.9242 557.737 L18.4042 557.737 Z" fill="#000000" fill-rule="evenodd" fill-opacity="1" /><path clip-path="url(#clip260)" d="M30.2762 507.798 L30.2762 501.942 L65.9242 501.942 L65.9242 507.798 L30.2762 507.798 M16.399 507.798 L16.399 501.942 L23.815 501.942 L23.815 507.798 L16.399 507.798 Z" fill="#000000" fill-rule="evenodd" fill-opacity="1" /><path clip-path="url(#clip260)" d="M35.7507 469.031 Q35.1778 470.018 34.9232 471.195 Q34.6367 472.341 34.6367 473.742 Q34.6367 478.707 37.8832 481.381 Q41.0979 484.022 47.1453 484.022 L65.9242 484.022 L65.9242 489.911 L30.2762 489.911 L30.2762 484.022 L35.8144 484.022 Q32.5679 482.176 31.0083 479.216 Q29.4168 476.256 29.4168 472.023 Q29.4168 471.418 29.5123 470.686 Q29.576 469.954 29.7351 469.063 L35.7507 469.031 Z" fill="#000000" fill-rule="evenodd" fill-opacity="1" /><path clip-path="url(#clip260)" d="M46.6361 433.829 L49.5006 433.829 L49.5006 460.756 Q55.5481 460.374 58.7309 457.127 Q61.8819 453.849 61.8819 448.024 Q61.8819 444.65 61.0544 441.499 Q60.2269 438.317 58.5718 435.197 L64.1099 435.197 Q65.4467 438.348 66.147 441.659 Q66.8472 444.969 66.8472 448.374 Q66.8472 456.904 61.8819 461.901 Q56.9167 466.867 48.4503 466.867 Q39.6974 466.867 34.5731 462.156 Q29.4168 457.414 29.4168 449.393 Q29.4168 442.2 34.0638 438.03 Q38.6789 433.829 46.6361 433.829 M44.9173 439.685 Q40.1112 439.749 37.2466 442.391 Q34.3821 445.001 34.3821 449.329 Q34.3821 454.231 37.1512 457.191 Q39.9202 460.119 44.9492 460.565 L44.9173 439.685 Z" fill="#000000" fill-rule="evenodd" fill-opacity="1" /><path clip-path="url(#clip260)" d="M31.6448 398.563 L37.1193 398.563 Q35.7507 401.045 35.0823 403.56 Q34.3821 406.042 34.3821 408.589 Q34.3821 414.286 38.0105 417.437 Q41.6072 420.588 48.132 420.588 Q54.6569 420.588 58.2853 417.437 Q61.8819 414.286 61.8819 408.589 Q61.8819 406.042 61.2135 403.56 Q60.5133 401.045 59.1447 398.563 L64.5555 398.563 Q65.7014 401.013 66.2743 403.655 Q66.8472 406.265 66.8472 409.225 Q66.8472 417.278 61.7864 422.02 Q56.7257 426.763 48.132 426.763 Q39.411 426.763 34.4139 421.988 Q29.4168 417.182 29.4168 408.843 Q29.4168 406.138 29.9897 403.56 Q30.5308 400.982 31.6448 398.563 Z" fill="#000000" fill-rule="evenodd" fill-opacity="1" /><path clip-path="url(#clip260)" d="M20.1547 382.585 L30.2762 382.585 L30.2762 370.522 L34.8277 370.522 L34.8277 382.585 L54.1794 382.585 Q58.5399 382.585 59.7813 381.407 Q61.0226 380.198 61.0226 376.537 L61.0226 370.522 L65.9242 370.522 L65.9242 376.537 Q65.9242 383.317 63.4097 385.895 Q60.8634 388.473 54.1794 388.473 L34.8277 388.473 L34.8277 392.77 L30.2762 392.77 L30.2762 388.473 L20.1547 388.473 L20.1547 382.585 Z" fill="#000000" fill-rule="evenodd" fill-opacity="1" /><path clip-path="url(#clip260)" d="M901.343 12.096 L913.536 12.096 L928.97 53.2532 L944.485 12.096 L956.678 12.096 L956.678 72.576 L948.698 72.576 L948.698 19.4686 L933.102 60.9499 L924.878 60.9499 L909.282 19.4686 L909.282 72.576 L901.343 72.576 L901.343 12.096 Z" fill="#000000" fill-rule="evenodd" fill-opacity="1" /><path clip-path="url(#clip260)" d="M971.828 54.671 L971.828 27.2059 L979.282 27.2059 L979.282 54.3874 Q979.282 60.8284 981.794 64.0691 Q984.305 67.2693 989.328 67.2693 Q995.364 67.2693 998.848 63.421 Q1002.37 59.5726 1002.37 52.9291 L1002.37 27.2059 L1009.83 27.2059 L1009.83 72.576 L1002.37 72.576 L1002.37 65.6084 Q999.658 69.7404 996.053 71.7658 Q992.488 73.7508 987.749 73.7508 Q979.93 73.7508 975.879 68.8897 Q971.828 64.0286 971.828 54.671 M990.584 26.1121 L990.584 26.1121 Z" fill="#000000" fill-rule="evenodd" fill-opacity="1" /><path clip-path="url(#clip260)" d="M1025.18 9.54393 L1032.63 9.54393 L1032.63 72.576 L1025.18 72.576 L1025.18 9.54393 Z" fill="#000000" fill-rule="evenodd" fill-opacity="1" /><path clip-path="url(#clip260)" d="M1055.6 14.324 L1055.6 27.2059 L1070.95 27.2059 L1070.95 32.9987 L1055.6 32.9987 L1055.6 57.6282 Q1055.6 63.1779 1057.1 64.7578 Q1058.64 66.3376 1063.3 66.3376 L1070.95 66.3376 L1070.95 72.576 L1063.3 72.576 Q1054.67 72.576 1051.39 69.3758 Q1048.11 66.1351 1048.11 57.6282 L1048.11 32.9987 L1042.64 32.9987 L1042.64 27.2059 L1048.11 27.2059 L1048.11 14.324 L1055.6 14.324 Z" fill="#000000" fill-rule="evenodd" fill-opacity="1" /><path clip-path="url(#clip260)" d="M1080.76 27.2059 L1088.21 27.2059 L1088.21 72.576 L1080.76 72.576 L1080.76 27.2059 M1080.76 9.54393 L1088.21 9.54393 L1088.21 18.9825 L1080.76 18.9825 L1080.76 9.54393 Z" fill="#000000" fill-rule="evenodd" fill-opacity="1" /><path clip-path="url(#clip260)" d="M1132.73 28.5427 L1132.73 35.5912 Q1129.57 33.9709 1126.17 33.1607 Q1122.77 32.3505 1119.12 32.3505 Q1113.57 32.3505 1110.77 34.0519 Q1108.02 35.7533 1108.02 39.156 Q1108.02 41.7486 1110 43.2475 Q1111.99 44.7058 1117.99 46.0426 L1120.54 46.6097 Q1128.48 48.3111 1131.8 51.4303 Q1135.16 54.509 1135.16 60.0587 Q1135.16 66.3781 1130.14 70.0644 Q1125.16 73.7508 1116.41 73.7508 Q1112.76 73.7508 1108.79 73.0216 Q1104.86 72.3329 1100.49 70.9151 L1100.49 63.2184 Q1104.62 65.3654 1108.63 66.4591 Q1112.64 67.5124 1116.57 67.5124 Q1121.83 67.5124 1124.67 65.73 Q1127.5 63.9071 1127.5 60.6258 Q1127.5 57.5877 1125.44 55.9673 Q1123.41 54.3469 1116.49 52.8481 L1113.89 52.2405 Q1106.97 50.7821 1103.89 47.7845 Q1100.81 44.7463 1100.81 39.4801 Q1100.81 33.0797 1105.35 29.5959 Q1109.88 26.1121 1118.23 26.1121 Q1122.36 26.1121 1126.01 26.7198 Q1129.65 27.3274 1132.73 28.5427 Z" fill="#000000" fill-rule="evenodd" fill-opacity="1" /><path clip-path="url(#clip260)" d="M1154.4 14.324 L1154.4 27.2059 L1169.76 27.2059 L1169.76 32.9987 L1154.4 32.9987 L1154.4 57.6282 Q1154.4 63.1779 1155.9 64.7578 Q1157.44 66.3376 1162.1 66.3376 L1169.76 66.3376 L1169.76 72.576 L1162.1 72.576 Q1153.47 72.576 1150.19 69.3758 Q1146.91 66.1351 1146.91 57.6282 L1146.91 32.9987 L1141.44 32.9987 L1141.44 27.2059 L1146.91 27.2059 L1146.91 14.324 L1154.4 14.324 Z" fill="#000000" fill-rule="evenodd" fill-opacity="1" /><path clip-path="url(#clip260)" d="M1200.18 49.7694 Q1191.14 49.7694 1187.66 51.8354 Q1184.18 53.9013 1184.18 58.8839 Q1184.18 62.8538 1186.77 65.2034 Q1189.4 67.5124 1193.9 67.5124 Q1200.1 67.5124 1203.82 63.1374 Q1207.59 58.7219 1207.59 51.4303 L1207.59 49.7694 L1200.18 49.7694 M1215.04 46.6907 L1215.04 72.576 L1207.59 72.576 L1207.59 65.6895 Q1205.04 69.8214 1201.23 71.8063 Q1197.42 73.7508 1191.91 73.7508 Q1184.95 73.7508 1180.81 69.8619 Q1176.72 65.9325 1176.72 59.3701 Q1176.72 51.7138 1181.83 47.825 Q1186.97 43.9361 1197.14 43.9361 L1207.59 43.9361 L1207.59 43.2069 Q1207.59 38.0623 1204.19 35.2672 Q1200.83 32.4315 1194.71 32.4315 Q1190.82 32.4315 1187.13 33.3632 Q1183.45 34.295 1180.04 36.1584 L1180.04 29.2718 Q1184.14 27.692 1187.98 26.9223 Q1191.83 26.1121 1195.48 26.1121 Q1205.32 26.1121 1210.18 31.2163 Q1215.04 36.3204 1215.04 46.6907 Z" fill="#000000" fill-rule="evenodd" fill-opacity="1" /><path clip-path="url(#clip260)" d="M1237.77 14.324 L1237.77 27.2059 L1253.12 27.2059 L1253.12 32.9987 L1237.77 32.9987 L1237.77 57.6282 Q1237.77 63.1779 1239.27 64.7578 Q1240.81 66.3376 1245.47 66.3376 L1253.12 66.3376 L1253.12 72.576 L1245.47 72.576 Q1236.84 72.576 1233.56 69.3758 Q1230.28 66.1351 1230.28 57.6282 L1230.28 32.9987 L1224.81 32.9987 L1224.81 27.2059 L1230.28 27.2059 L1230.28 14.324 L1237.77 14.324 Z" fill="#000000" fill-rule="evenodd" fill-opacity="1" /><path clip-path="url(#clip260)" d="M1301.73 48.0275 L1301.73 51.6733 L1267.46 51.6733 Q1267.95 59.3701 1272.08 63.421 Q1276.25 67.4314 1283.67 67.4314 Q1287.96 67.4314 1291.97 66.3781 Q1296.02 65.3249 1299.99 63.2184 L1299.99 70.267 Q1295.98 71.9684 1291.77 72.8596 Q1287.56 73.7508 1283.22 73.7508 Q1272.37 73.7508 1266.01 67.4314 Q1259.69 61.1119 1259.69 50.3365 Q1259.69 39.1965 1265.68 32.6746 Q1271.72 26.1121 1281.93 26.1121 Q1291.08 26.1121 1296.39 32.0264 Q1301.73 37.9003 1301.73 48.0275 M1294.28 45.84 Q1294.2 39.7232 1290.84 36.0774 Q1287.52 32.4315 1282.01 32.4315 Q1275.77 32.4315 1272 35.9558 Q1268.27 39.4801 1267.71 45.8805 L1294.28 45.84 Z" fill="#000000" fill-rule="evenodd" fill-opacity="1" /><path clip-path="url(#clip260)" d="M1340.66 12.096 L1352.86 12.096 L1368.29 53.2532 L1383.81 12.096 L1396 12.096 L1396 72.576 L1388.02 72.576 L1388.02 19.4686 L1372.42 60.9499 L1364.2 60.9499 L1348.6 19.4686 L1348.6 72.576 L1340.66 72.576 L1340.66 12.096 Z" fill="#000000" fill-rule="evenodd" fill-opacity="1" /><path clip-path="url(#clip260)" d="M1429.5 32.4315 Q1423.5 32.4315 1420.02 37.1306 Q1416.54 41.7891 1416.54 49.9314 Q1416.54 58.0738 1419.98 62.7728 Q1423.46 67.4314 1429.5 67.4314 Q1435.45 67.4314 1438.94 62.7323 Q1442.42 58.0333 1442.42 49.9314 Q1442.42 41.8701 1438.94 37.1711 Q1435.45 32.4315 1429.5 32.4315 M1429.5 26.1121 Q1439.22 26.1121 1444.77 32.4315 Q1450.32 38.7509 1450.32 49.9314 Q1450.32 61.0714 1444.77 67.4314 Q1439.22 73.7508 1429.5 73.7508 Q1419.74 73.7508 1414.19 67.4314 Q1408.68 61.0714 1408.68 49.9314 Q1408.68 38.7509 1414.19 32.4315 Q1419.74 26.1121 1429.5 26.1121 Z" fill="#000000" fill-rule="evenodd" fill-opacity="1" /><path clip-path="url(#clip260)" d="M1492.53 34.0924 L1492.53 9.54393 L1499.99 9.54393 L1499.99 72.576 L1492.53 72.576 L1492.53 65.7705 Q1490.18 69.8214 1486.58 71.8063 Q1483.01 73.7508 1477.99 73.7508 Q1469.77 73.7508 1464.58 67.1883 Q1459.44 60.6258 1459.44 49.9314 Q1459.44 39.2371 1464.58 32.6746 Q1469.77 26.1121 1477.99 26.1121 Q1483.01 26.1121 1486.58 28.0971 Q1490.18 30.0415 1492.53 34.0924 M1467.13 49.9314 Q1467.13 58.1548 1470.49 62.8538 Q1473.9 67.5124 1479.81 67.5124 Q1485.73 67.5124 1489.13 62.8538 Q1492.53 58.1548 1492.53 49.9314 Q1492.53 41.7081 1489.13 37.0496 Q1485.73 32.3505 1479.81 32.3505 Q1473.9 32.3505 1470.49 37.0496 Q1467.13 41.7081 1467.13 49.9314 Z" fill="#000000" fill-rule="evenodd" fill-opacity="1" /><path clip-path="url(#clip260)" d="M1554.15 48.0275 L1554.15 51.6733 L1519.88 51.6733 Q1520.36 59.3701 1524.49 63.421 Q1528.67 67.4314 1536.08 67.4314 Q1540.37 67.4314 1544.38 66.3781 Q1548.43 65.3249 1552.4 63.2184 L1552.4 70.267 Q1548.39 71.9684 1544.18 72.8596 Q1539.97 73.7508 1535.63 73.7508 Q1524.78 73.7508 1518.42 67.4314 Q1512.1 61.1119 1512.1 50.3365 Q1512.1 39.1965 1518.09 32.6746 Q1524.13 26.1121 1534.34 26.1121 Q1543.49 26.1121 1548.8 32.0264 Q1554.15 37.9003 1554.15 48.0275 M1546.69 45.84 Q1546.61 39.7232 1543.25 36.0774 Q1539.93 32.4315 1534.42 32.4315 Q1528.18 32.4315 1524.41 35.9558 Q1520.69 39.4801 1520.12 45.8805 L1546.69 45.84 Z" fill="#000000" fill-rule="evenodd" fill-opacity="1" /><path clip-path="url(#clip260)" d="M1566.38 9.54393 L1573.83 9.54393 L1573.83 72.576 L1566.38 72.576 L1566.38 9.54393 Z" fill="#000000" fill-rule="evenodd" fill-opacity="1" /><path clip-path="url(#clip262)" d="
M330.532 590.397 L330.532 1386.31 L516.595 1386.31 L516.595 590.397 L330.532 590.397 L330.532 590.397  Z
  " fill="#009af9" fill-rule="evenodd" fill-opacity="1"/>
<polyline clip-path="url(#clip262)" style="stroke:#000000; stroke-linecap:butt; stroke-linejoin:round; stroke-width:4; stroke-opacity:1; fill:none" points="
  330.532,590.397 330.532,1386.31 516.595,1386.31 516.595,590.397 330.532,590.397 
  "/>
<path clip-path="url(#clip262)" d="
M563.111 511.65 L563.111 1386.31 L749.173 1386.31 L749.173 511.65 L563.111 511.65 L563.111 511.65  Z
  " fill="#009af9" fill-rule="evenodd" fill-opacity="1"/>
<polyline clip-path="url(#clip262)" style="stroke:#000000; stroke-linecap:butt; stroke-linejoin:round; stroke-width:4; stroke-opacity:1; fill:none" points="
  563.111,511.65 563.111,1386.31 749.173,1386.31 749.173,511.65 563.111,511.65 
  "/>
<path clip-path="url(#clip262)" d="
M795.689 251.434 L795.689 1386.31 L981.752 1386.31 L981.752 251.434 L795.689 251.434 L795.689 251.434  Z
  " fill="#009af9" fill-rule="evenodd" fill-opacity="1"/>
<polyline clip-path="url(#clip262)" style="stroke:#000000; stroke-linecap:butt; stroke-linejoin:round; stroke-width:4; stroke-opacity:1; fill:none" points="
  795.689,251.434 795.689,1386.31 981.752,1386.31 981.752,251.434 795.689,251.434 
  "/>
<path clip-path="url(#clip262)" d="
M1028.27 256.882 L1028.27 1386.31 L1214.33 1386.31 L1214.33 256.882 L1028.27 256.882 L1028.27 256.882  Z
  " fill="#009af9" fill-rule="evenodd" fill-opacity="1"/>
<polyline clip-path="url(#clip262)" style="stroke:#000000; stroke-linecap:butt; stroke-linejoin:round; stroke-width:4; stroke-opacity:1; fill:none" points="
  1028.27,256.882 1028.27,1386.31 1214.33,1386.31 1214.33,256.882 1028.27,256.882 
  "/>
<path clip-path="url(#clip262)" d="
M1260.85 826.135 L1260.85 1386.31 L1446.91 1386.31 L1446.91 826.135 L1260.85 826.135 L1260.85 826.135  Z
  " fill="#009af9" fill-rule="evenodd" fill-opacity="1"/>
<polyline clip-path="url(#clip262)" style="stroke:#000000; stroke-linecap:butt; stroke-linejoin:round; stroke-width:4; stroke-opacity:1; fill:none" points="
  1260.85,826.135 1260.85,1386.31 1446.91,1386.31 1446.91,826.135 1260.85,826.135 
  "/>
<path clip-path="url(#clip262)" d="
M1493.42 200.049 L1493.42 1386.31 L1679.49 1386.31 L1679.49 200.049 L1493.42 200.049 L1493.42 200.049  Z
  " fill="#009af9" fill-rule="evenodd" fill-opacity="1"/>
<polyline clip-path="url(#clip262)" style="stroke:#000000; stroke-linecap:butt; stroke-linejoin:round; stroke-width:4; stroke-opacity:1; fill:none" points="
  1493.42,200.049 1493.42,1386.31 1679.49,1386.31 1679.49,200.049 1493.42,200.049 
  "/>
<path clip-path="url(#clip262)" d="
M1726 423.899 L1726 1386.31 L1912.07 1386.31 L1912.07 423.899 L1726 423.899 L1726 423.899  Z
  " fill="#009af9" fill-rule="evenodd" fill-opacity="1"/>
<polyline clip-path="url(#clip262)" style="stroke:#000000; stroke-linecap:butt; stroke-linejoin:round; stroke-width:4; stroke-opacity:1; fill:none" points="
  1726,423.899 1726,1386.31 1912.07,1386.31 1912.07,423.899 1726,423.899 
  "/>
<path clip-path="url(#clip262)" d="
M1958.58 867.994 L1958.58 1386.31 L2144.64 1386.31 L2144.64 867.994 L1958.58 867.994 L1958.58 867.994  Z
  " fill="#009af9" fill-rule="evenodd" fill-opacity="1"/>
<polyline clip-path="url(#clip262)" style="stroke:#000000; stroke-linecap:butt; stroke-linejoin:round; stroke-width:4; stroke-opacity:1; fill:none" points="
  1958.58,867.994 1958.58,1386.31 2144.64,1386.31 2144.64,867.994 1958.58,867.994 
  "/>
<circle clip-path="url(#clip262)" cx="423.564" cy="550.601" r="14" fill="#e26f46" fill-rule="evenodd" fill-opacity="0" stroke="#000000" stroke-opacity="0" stroke-width="3.072"/>
<circle clip-path="url(#clip262)" cx="656.142" cy="471.855" r="14" fill="#e26f46" fill-rule="evenodd" fill-opacity="0" stroke="#000000" stroke-opacity="0" stroke-width="3.072"/>
<circle clip-path="url(#clip262)" cx="888.72" cy="211.638" r="14" fill="#e26f46" fill-rule="evenodd" fill-opacity="0" stroke="#000000" stroke-opacity="0" stroke-width="3.072"/>
<circle clip-path="url(#clip262)" cx="1121.3" cy="217.087" r="14" fill="#e26f46" fill-rule="evenodd" fill-opacity="0" stroke="#000000" stroke-opacity="0" stroke-width="3.072"/>
<circle clip-path="url(#clip262)" cx="1353.88" cy="786.339" r="14" fill="#e26f46" fill-rule="evenodd" fill-opacity="0" stroke="#000000" stroke-opacity="0" stroke-width="3.072"/>
<circle clip-path="url(#clip262)" cx="1586.46" cy="160.254" r="14" fill="#e26f46" fill-rule="evenodd" fill-opacity="0" stroke="#000000" stroke-opacity="0" stroke-width="3.072"/>
<circle clip-path="url(#clip262)" cx="1819.03" cy="384.103" r="14" fill="#e26f46" fill-rule="evenodd" fill-opacity="0" stroke="#000000" stroke-opacity="0" stroke-width="3.072"/>
<circle clip-path="url(#clip262)" cx="2051.61" cy="828.199" r="14" fill="#e26f46" fill-rule="evenodd" fill-opacity="0" stroke="#000000" stroke-opacity="0" stroke-width="3.072"/>
<path clip-path="url(#clip260)" d="M325.248 529.299 Q319.832 529.299 317.088 534.647 Q314.38 539.959 314.38 550.654 Q314.38 561.313 317.088 566.66 Q319.832 571.973 325.248 571.973 Q330.7 571.973 333.408 566.66 Q336.151 561.313 336.151 550.654 Q336.151 539.959 333.408 534.647 Q330.7 529.299 325.248 529.299 M325.248 523.744 Q333.963 523.744 338.547 530.654 Q343.165 537.529 343.165 550.654 Q343.165 563.744 338.547 570.653 Q333.963 577.528 325.248 577.528 Q316.533 577.528 311.915 570.653 Q307.332 563.744 307.332 550.654 Q307.332 537.529 311.915 530.654 Q316.533 523.744 325.248 523.744 Z" fill="#000000" fill-rule="evenodd" fill-opacity="1" /><path clip-path="url(#clip260)" d="M355.491 567.702 L362.817 567.702 L362.817 576.521 L355.491 576.521 L355.491 567.702 Z" fill="#000000" fill-rule="evenodd" fill-opacity="1" /><path clip-path="url(#clip260)" d="M379.31 570.619 L390.769 570.619 L390.769 531.07 L378.303 533.57 L378.303 527.181 L390.699 524.681 L397.713 524.681 L397.713 570.619 L409.171 570.619 L409.171 576.521 L379.31 576.521 L379.31 570.619 Z" fill="#000000" fill-rule="evenodd" fill-opacity="1" /><path clip-path="url(#clip260)" d="M421.567 524.681 L454.9 524.681 L454.9 527.668 L436.081 576.521 L428.755 576.521 L446.463 530.584 L421.567 530.584 L421.567 524.681 Z" fill="#000000" fill-rule="evenodd" fill-opacity="1" /><path clip-path="url(#clip260)" d="M489.831 548.57 Q494.865 549.647 497.678 553.049 Q500.525 556.452 500.525 561.452 Q500.525 569.126 495.247 573.327 Q489.97 577.528 480.247 577.528 Q476.983 577.528 473.511 576.869 Q470.074 576.244 466.393 574.959 L466.393 568.188 Q469.31 569.89 472.782 570.758 Q476.254 571.626 480.039 571.626 Q486.636 571.626 490.074 569.021 Q493.546 566.417 493.546 561.452 Q493.546 556.869 490.317 554.299 Q487.122 551.695 481.393 551.695 L475.352 551.695 L475.352 545.931 L481.671 545.931 Q486.845 545.931 489.588 543.883 Q492.331 541.799 492.331 537.911 Q492.331 533.917 489.483 531.799 Q486.671 529.647 481.393 529.647 Q478.511 529.647 475.213 530.272 Q471.914 530.897 467.956 532.216 L467.956 525.966 Q471.949 524.855 475.421 524.299 Q478.928 523.744 482.018 523.744 Q490.004 523.744 494.657 527.39 Q499.31 531.001 499.31 537.181 Q499.31 541.487 496.844 544.473 Q494.379 547.424 489.831 548.57 Z" fill="#000000" fill-rule="evenodd" fill-opacity="1" /><path clip-path="url(#clip260)" d="M537.712 538.779 L537.712 544.82 Q535.004 543.431 532.087 542.737 Q529.171 542.042 526.046 542.042 Q521.289 542.042 518.893 543.501 Q516.532 544.959 516.532 547.876 Q516.532 550.098 518.233 551.383 Q519.935 552.633 525.073 553.778 L527.261 554.265 Q534.066 555.723 536.914 558.397 Q539.796 561.035 539.796 565.792 Q539.796 571.209 535.49 574.369 Q531.219 577.528 523.719 577.528 Q520.594 577.528 517.192 576.903 Q513.824 576.313 510.074 575.098 L510.074 568.501 Q513.615 570.341 517.053 571.278 Q520.49 572.181 523.858 572.181 Q528.372 572.181 530.803 570.653 Q533.233 569.091 533.233 566.278 Q533.233 563.674 531.462 562.285 Q529.726 560.897 523.789 559.612 L521.567 559.091 Q515.629 557.841 512.99 555.272 Q510.351 552.667 510.351 548.154 Q510.351 542.667 514.24 539.681 Q518.129 536.695 525.282 536.695 Q528.823 536.695 531.948 537.216 Q535.073 537.737 537.712 538.779 Z" fill="#000000" fill-rule="evenodd" fill-opacity="1" /><path clip-path="url(#clip260)" d="M580.448 450.553 Q575.031 450.553 572.288 455.9 Q569.58 461.212 569.58 471.907 Q569.58 482.566 572.288 487.914 Q575.031 493.226 580.448 493.226 Q585.899 493.226 588.608 487.914 Q591.351 482.566 591.351 471.907 Q591.351 461.212 588.608 455.9 Q585.899 450.553 580.448 450.553 M580.448 444.997 Q589.163 444.997 593.747 451.907 Q598.365 458.782 598.365 471.907 Q598.365 484.997 593.747 491.907 Q589.163 498.782 580.448 498.782 Q571.733 498.782 567.115 491.907 Q562.531 484.997 562.531 471.907 Q562.531 458.782 567.115 451.907 Q571.733 444.997 580.448 444.997 Z" fill="#000000" fill-rule="evenodd" fill-opacity="1" /><path clip-path="url(#clip260)" d="M610.691 488.955 L618.017 488.955 L618.017 497.775 L610.691 497.775 L610.691 488.955 Z" fill="#000000" fill-rule="evenodd" fill-opacity="1" /><path clip-path="url(#clip260)" d="M634.51 491.872 L645.968 491.872 L645.968 452.324 L633.503 454.824 L633.503 448.435 L645.899 445.935 L652.913 445.935 L652.913 491.872 L664.371 491.872 L664.371 497.775 L634.51 497.775 L634.51 491.872 Z" fill="#000000" fill-rule="evenodd" fill-opacity="1" /><path clip-path="url(#clip260)" d="M678.746 496.698 L678.746 490.309 Q681.385 491.559 684.093 492.219 Q686.802 492.879 689.406 492.879 Q696.35 492.879 699.996 488.226 Q703.676 483.539 704.197 474.025 Q702.183 477.011 699.093 478.608 Q696.003 480.205 692.253 480.205 Q684.475 480.205 679.927 475.518 Q675.413 470.796 675.413 462.636 Q675.413 454.65 680.135 449.824 Q684.857 444.997 692.704 444.997 Q701.697 444.997 706.42 451.907 Q711.176 458.782 711.176 471.907 Q711.176 484.164 705.343 491.49 Q699.545 498.782 689.718 498.782 Q687.079 498.782 684.371 498.261 Q681.663 497.74 678.746 496.698 M692.704 474.719 Q697.427 474.719 700.17 471.49 Q702.947 468.261 702.947 462.636 Q702.947 457.046 700.17 453.817 Q697.427 450.553 692.704 450.553 Q687.982 450.553 685.204 453.817 Q682.461 457.046 682.461 462.636 Q682.461 468.261 685.204 471.49 Q687.982 474.719 692.704 474.719 Z" fill="#000000" fill-rule="evenodd" fill-opacity="1" /><path clip-path="url(#clip260)" d="M747.669 460.032 L747.669 466.073 Q744.961 464.685 742.044 463.99 Q739.128 463.296 736.003 463.296 Q731.246 463.296 728.85 464.754 Q726.489 466.212 726.489 469.129 Q726.489 471.351 728.19 472.636 Q729.892 473.886 735.03 475.032 L737.218 475.518 Q744.023 476.976 746.871 479.65 Q749.753 482.289 749.753 487.046 Q749.753 492.462 745.447 495.622 Q741.176 498.782 733.676 498.782 Q730.551 498.782 727.149 498.157 Q723.781 497.566 720.031 496.351 L720.031 489.754 Q723.572 491.594 727.01 492.532 Q730.447 493.434 733.815 493.434 Q738.329 493.434 740.76 491.907 Q743.19 490.344 743.19 487.532 Q743.19 484.928 741.419 483.539 Q739.683 482.15 733.746 480.865 L731.524 480.344 Q725.586 479.094 722.947 476.525 Q720.308 473.921 720.308 469.407 Q720.308 463.921 724.197 460.935 Q728.086 457.949 735.239 457.949 Q738.78 457.949 741.905 458.469 Q745.03 458.99 747.669 460.032 Z" fill="#000000" fill-rule="evenodd" fill-opacity="1" /><path clip-path="url(#clip260)" d="M790.405 190.336 Q784.988 190.336 782.245 195.683 Q779.537 200.996 779.537 211.69 Q779.537 222.35 782.245 227.697 Q784.988 233.009 790.405 233.009 Q795.856 233.009 798.565 227.697 Q801.308 222.35 801.308 211.69 Q801.308 200.996 798.565 195.683 Q795.856 190.336 790.405 190.336 M790.405 184.781 Q799.12 184.781 803.704 191.69 Q808.322 198.565 808.322 211.69 Q808.322 224.78 803.704 231.69 Q799.12 238.565 790.405 238.565 Q781.69 238.565 777.072 231.69 Q772.488 224.78 772.488 211.69 Q772.488 198.565 777.072 191.69 Q781.69 184.781 790.405 184.781 Z" fill="#000000" fill-rule="evenodd" fill-opacity="1" /><path clip-path="url(#clip260)" d="M820.648 228.739 L827.974 228.739 L827.974 237.558 L820.648 237.558 L820.648 228.739 Z" fill="#000000" fill-rule="evenodd" fill-opacity="1" /><path clip-path="url(#clip260)" d="M849.294 231.655 L873.773 231.655 L873.773 237.558 L840.856 237.558 L840.856 231.655 Q844.849 227.523 851.724 220.579 Q858.634 213.6 860.405 211.586 Q863.773 207.801 865.092 205.197 Q866.446 202.558 866.446 200.024 Q866.446 195.892 863.53 193.287 Q860.648 190.683 855.995 190.683 Q852.696 190.683 849.016 191.829 Q845.37 192.975 841.203 195.301 L841.203 188.218 Q845.439 186.517 849.12 185.649 Q852.8 184.781 855.856 184.781 Q863.912 184.781 868.703 188.808 Q873.495 192.836 873.495 199.572 Q873.495 202.767 872.28 205.648 Q871.099 208.496 867.939 212.385 Q867.071 213.391 862.418 218.218 Q857.766 223.01 849.294 231.655 Z" fill="#000000" fill-rule="evenodd" fill-opacity="1" /><path clip-path="url(#clip260)" d="M907.765 191.829 L890.057 219.503 L907.765 219.503 L907.765 191.829 M905.925 185.718 L914.745 185.718 L914.745 219.503 L922.14 219.503 L922.14 225.336 L914.745 225.336 L914.745 237.558 L907.765 237.558 L907.765 225.336 L884.363 225.336 L884.363 218.565 L905.925 185.718 Z" fill="#000000" fill-rule="evenodd" fill-opacity="1" /><path clip-path="url(#clip260)" d="M949.606 208.843 Q944.883 208.843 942.106 212.072 Q939.363 215.301 939.363 220.926 Q939.363 226.516 942.106 229.78 Q944.883 233.009 949.606 233.009 Q954.328 233.009 957.071 229.78 Q959.849 226.516 959.849 220.926 Q959.849 215.301 957.071 212.072 Q954.328 208.843 949.606 208.843 M963.529 186.864 L963.529 193.253 Q960.89 192.003 958.182 191.343 Q955.508 190.683 952.869 190.683 Q945.925 190.683 942.244 195.371 Q938.599 200.058 938.078 209.537 Q940.126 206.517 943.217 204.919 Q946.307 203.287 950.022 203.287 Q957.835 203.287 962.349 208.044 Q966.897 212.767 966.897 220.926 Q966.897 228.912 962.175 233.739 Q957.453 238.565 949.606 238.565 Q940.613 238.565 935.856 231.69 Q931.099 224.78 931.099 211.69 Q931.099 199.399 936.932 192.107 Q942.765 184.781 952.592 184.781 Q955.23 184.781 957.904 185.301 Q960.612 185.822 963.529 186.864 Z" fill="#000000" fill-rule="evenodd" fill-opacity="1" /><path clip-path="url(#clip260)" d="M1002.87 199.815 L1002.87 205.857 Q1000.16 204.468 997.244 203.773 Q994.327 203.079 991.203 203.079 Q986.446 203.079 984.05 204.537 Q981.689 205.996 981.689 208.912 Q981.689 211.135 983.39 212.419 Q985.091 213.669 990.23 214.815 L992.418 215.301 Q999.223 216.76 1002.07 219.433 Q1004.95 222.072 1004.95 226.829 Q1004.95 232.246 1000.65 235.405 Q996.376 238.565 988.876 238.565 Q985.751 238.565 982.348 237.94 Q978.98 237.35 975.23 236.134 L975.23 229.537 Q978.772 231.378 982.21 232.315 Q985.647 233.218 989.015 233.218 Q993.529 233.218 995.959 231.69 Q998.39 230.128 998.39 227.315 Q998.39 224.711 996.619 223.322 Q994.883 221.933 988.946 220.648 L986.723 220.128 Q980.786 218.878 978.147 216.308 Q975.508 213.704 975.508 209.19 Q975.508 203.704 979.397 200.718 Q983.286 197.732 990.439 197.732 Q993.98 197.732 997.105 198.253 Q1000.23 198.774 1002.87 199.815 Z" fill="#000000" fill-rule="evenodd" fill-opacity="1" /><path clip-path="url(#clip260)" d="M1022.98 195.785 Q1017.57 195.785 1014.82 201.132 Q1012.12 206.445 1012.12 217.139 Q1012.12 227.799 1014.82 233.146 Q1017.57 238.458 1022.98 238.458 Q1028.43 238.458 1031.14 233.146 Q1033.89 227.799 1033.89 217.139 Q1033.89 206.445 1031.14 201.132 Q1028.43 195.785 1022.98 195.785 M1022.98 190.229 Q1031.7 190.229 1036.28 197.139 Q1040.9 204.014 1040.9 217.139 Q1040.9 230.229 1036.28 237.139 Q1031.7 244.014 1022.98 244.014 Q1014.27 244.014 1009.65 237.139 Q1005.07 230.229 1005.07 217.139 Q1005.07 204.014 1009.65 197.139 Q1014.27 190.229 1022.98 190.229 Z" fill="#000000" fill-rule="evenodd" fill-opacity="1" /><path clip-path="url(#clip260)" d="M1053.23 234.188 L1060.55 234.188 L1060.55 243.007 L1053.23 243.007 L1053.23 234.188 Z" fill="#000000" fill-rule="evenodd" fill-opacity="1" /><path clip-path="url(#clip260)" d="M1081.87 237.104 L1106.35 237.104 L1106.35 243.007 L1073.43 243.007 L1073.43 237.104 Q1077.43 232.972 1084.3 226.028 Q1091.21 219.049 1092.98 217.035 Q1096.35 213.25 1097.67 210.646 Q1099.02 208.007 1099.02 205.472 Q1099.02 201.341 1096.11 198.736 Q1093.23 196.132 1088.57 196.132 Q1085.27 196.132 1081.59 197.278 Q1077.95 198.424 1073.78 200.75 L1073.78 193.667 Q1078.02 191.966 1081.7 191.098 Q1085.38 190.229 1088.43 190.229 Q1096.49 190.229 1101.28 194.257 Q1106.07 198.285 1106.07 205.021 Q1106.07 208.215 1104.86 211.097 Q1103.68 213.945 1100.52 217.833 Q1099.65 218.84 1095 223.667 Q1090.34 228.458 1081.87 237.104 Z" fill="#000000" fill-rule="evenodd" fill-opacity="1" /><path clip-path="url(#clip260)" d="M1140.34 197.278 L1122.64 224.951 L1140.34 224.951 L1140.34 197.278 M1138.5 191.167 L1147.32 191.167 L1147.32 224.951 L1154.72 224.951 L1154.72 230.785 L1147.32 230.785 L1147.32 243.007 L1140.34 243.007 L1140.34 230.785 L1116.94 230.785 L1116.94 224.014 L1138.5 191.167 Z" fill="#000000" fill-rule="evenodd" fill-opacity="1" /><path clip-path="url(#clip260)" d="M1166.39 191.167 L1193.92 191.167 L1193.92 197.07 L1172.81 197.07 L1172.81 209.778 Q1174.34 209.257 1175.86 209.014 Q1177.39 208.736 1178.92 208.736 Q1187.6 208.736 1192.67 213.493 Q1197.74 218.25 1197.74 226.375 Q1197.74 234.743 1192.53 239.396 Q1187.32 244.014 1177.84 244.014 Q1174.58 244.014 1171.18 243.458 Q1167.81 242.903 1164.2 241.792 L1164.2 234.743 Q1167.32 236.444 1170.66 237.278 Q1173.99 238.111 1177.7 238.111 Q1183.71 238.111 1187.22 234.951 Q1190.73 231.792 1190.73 226.375 Q1190.73 220.958 1187.22 217.799 Q1183.71 214.639 1177.7 214.639 Q1174.89 214.639 1172.08 215.264 Q1169.3 215.889 1166.39 217.208 L1166.39 191.167 Z" fill="#000000" fill-rule="evenodd" fill-opacity="1" /><path clip-path="url(#clip260)" d="M1235.45 205.264 L1235.45 211.306 Q1232.74 209.917 1229.82 209.222 Q1226.91 208.528 1223.78 208.528 Q1219.02 208.528 1216.63 209.986 Q1214.27 211.445 1214.27 214.361 Q1214.27 216.583 1215.97 217.868 Q1217.67 219.118 1222.81 220.264 L1225 220.75 Q1231.8 222.208 1234.65 224.882 Q1237.53 227.521 1237.53 232.278 Q1237.53 237.694 1233.23 240.854 Q1228.95 244.014 1221.45 244.014 Q1218.33 244.014 1214.93 243.389 Q1211.56 242.799 1207.81 241.583 L1207.81 234.986 Q1211.35 236.826 1214.79 237.764 Q1218.23 238.667 1221.59 238.667 Q1226.11 238.667 1228.54 237.139 Q1230.97 235.576 1230.97 232.764 Q1230.97 230.16 1229.2 228.771 Q1227.46 227.382 1221.52 226.097 L1219.3 225.576 Q1213.36 224.326 1210.73 221.757 Q1208.09 219.153 1208.09 214.639 Q1208.09 209.153 1211.98 206.167 Q1215.86 203.181 1223.02 203.181 Q1226.56 203.181 1229.68 203.702 Q1232.81 204.222 1235.45 205.264 Z" fill="#000000" fill-rule="evenodd" fill-opacity="1" /><path clip-path="url(#clip260)" d="M1255.56 765.037 Q1250.15 765.037 1247.4 770.384 Q1244.69 775.697 1244.69 786.391 Q1244.69 797.051 1247.4 802.398 Q1250.15 807.711 1255.56 807.711 Q1261.01 807.711 1263.72 802.398 Q1266.46 797.051 1266.46 786.391 Q1266.46 775.697 1263.72 770.384 Q1261.01 765.037 1255.56 765.037 M1255.56 759.482 Q1264.28 759.482 1268.86 766.391 Q1273.48 773.266 1273.48 786.391 Q1273.48 799.482 1268.86 806.391 Q1264.28 813.266 1255.56 813.266 Q1246.85 813.266 1242.23 806.391 Q1237.65 799.482 1237.65 786.391 Q1237.65 773.266 1242.23 766.391 Q1246.85 759.482 1255.56 759.482 Z" fill="#000000" fill-rule="evenodd" fill-opacity="1" /><path clip-path="url(#clip260)" d="M1285.8 803.44 L1293.13 803.44 L1293.13 812.259 L1285.8 812.259 L1285.8 803.44 Z" fill="#000000" fill-rule="evenodd" fill-opacity="1" /><path clip-path="url(#clip260)" d="M1309.62 806.357 L1321.08 806.357 L1321.08 766.808 L1308.62 769.308 L1308.62 762.919 L1321.01 760.419 L1328.03 760.419 L1328.03 806.357 L1339.48 806.357 L1339.48 812.259 L1309.62 812.259 L1309.62 806.357 Z" fill="#000000" fill-rule="evenodd" fill-opacity="1" /><path clip-path="url(#clip260)" d="M1359.69 806.357 L1384.17 806.357 L1384.17 812.259 L1351.26 812.259 L1351.26 806.357 Q1355.25 802.225 1362.12 795.28 Q1369.03 788.301 1370.8 786.287 Q1374.17 782.502 1375.49 779.898 Q1376.85 777.259 1376.85 774.725 Q1376.85 770.593 1373.93 767.989 Q1371.05 765.385 1366.39 765.385 Q1363.1 765.385 1359.42 766.53 Q1355.77 767.676 1351.6 770.003 L1351.6 762.919 Q1355.84 761.218 1359.52 760.35 Q1363.2 759.482 1366.26 759.482 Q1374.31 759.482 1379.1 763.51 Q1383.89 767.537 1383.89 774.273 Q1383.89 777.468 1382.68 780.35 Q1381.5 783.197 1378.34 787.086 Q1377.47 788.093 1372.82 792.919 Q1368.17 797.711 1359.69 806.357 Z" fill="#000000" fill-rule="evenodd" fill-opacity="1" /><path clip-path="url(#clip260)" d="M1400.11 806.357 L1411.57 806.357 L1411.57 766.808 L1399.1 769.308 L1399.1 762.919 L1411.5 760.419 L1418.51 760.419 L1418.51 806.357 L1429.97 806.357 L1429.97 812.259 L1400.11 812.259 L1400.11 806.357 Z" fill="#000000" fill-rule="evenodd" fill-opacity="1" /><path clip-path="url(#clip260)" d="M1468.03 774.516 L1468.03 780.558 Q1465.32 779.169 1462.4 778.475 Q1459.48 777.78 1456.36 777.78 Q1451.6 777.78 1449.21 779.239 Q1446.85 780.697 1446.85 783.614 Q1446.85 785.836 1448.55 787.12 Q1450.25 788.37 1455.39 789.516 L1457.57 790.002 Q1464.38 791.461 1467.23 794.134 Q1470.11 796.773 1470.11 801.53 Q1470.11 806.947 1465.8 810.106 Q1461.53 813.266 1454.03 813.266 Q1450.91 813.266 1447.51 812.641 Q1444.14 812.051 1440.39 810.836 L1440.39 804.238 Q1443.93 806.079 1447.37 807.016 Q1450.8 807.919 1454.17 807.919 Q1458.69 807.919 1461.12 806.391 Q1463.55 804.829 1463.55 802.016 Q1463.55 799.412 1461.78 798.023 Q1460.04 796.634 1454.1 795.35 L1451.88 794.829 Q1445.94 793.579 1443.3 791.009 Q1440.66 788.405 1440.66 783.891 Q1440.66 778.405 1444.55 775.419 Q1448.44 772.433 1455.6 772.433 Q1459.14 772.433 1462.26 772.954 Q1465.39 773.475 1468.03 774.516 Z" fill="#000000" fill-rule="evenodd" fill-opacity="1" /><path clip-path="url(#clip260)" d="M1488.14 138.952 Q1482.72 138.952 1479.98 144.299 Q1477.27 149.611 1477.27 160.306 Q1477.27 170.965 1479.98 176.313 Q1482.72 181.625 1488.14 181.625 Q1493.59 181.625 1496.3 176.313 Q1499.04 170.965 1499.04 160.306 Q1499.04 149.611 1496.3 144.299 Q1493.59 138.952 1488.14 138.952 M1488.14 133.396 Q1496.86 133.396 1501.44 140.306 Q1506.06 147.181 1506.06 160.306 Q1506.06 173.396 1501.44 180.306 Q1496.86 187.181 1488.14 187.181 Q1479.42 187.181 1474.81 180.306 Q1470.22 173.396 1470.22 160.306 Q1470.22 147.181 1474.81 140.306 Q1479.42 133.396 1488.14 133.396 Z" fill="#000000" fill-rule="evenodd" fill-opacity="1" /><path clip-path="url(#clip260)" d="M1518.38 177.354 L1525.71 177.354 L1525.71 186.174 L1518.38 186.174 L1518.38 177.354 Z" fill="#000000" fill-rule="evenodd" fill-opacity="1" /><path clip-path="url(#clip260)" d="M1547.03 180.271 L1571.51 180.271 L1571.51 186.174 L1538.59 186.174 L1538.59 180.271 Q1542.58 176.139 1549.46 169.195 Q1556.37 162.215 1558.14 160.202 Q1561.51 156.417 1562.83 153.813 Q1564.18 151.174 1564.18 148.639 Q1564.18 144.507 1561.26 141.903 Q1558.38 139.299 1553.73 139.299 Q1550.43 139.299 1546.75 140.445 Q1543.11 141.591 1538.94 143.917 L1538.94 136.834 Q1543.17 135.132 1546.86 134.264 Q1550.54 133.396 1553.59 133.396 Q1561.65 133.396 1566.44 137.424 Q1571.23 141.452 1571.23 148.188 Q1571.23 151.382 1570.01 154.264 Q1568.83 157.111 1565.67 161 Q1564.81 162.007 1560.15 166.834 Q1555.5 171.625 1547.03 180.271 Z" fill="#000000" fill-rule="evenodd" fill-opacity="1" /><path clip-path="url(#clip260)" d="M1586.3 134.334 L1613.83 134.334 L1613.83 140.236 L1592.72 140.236 L1592.72 152.945 Q1594.25 152.424 1595.78 152.181 Q1597.31 151.903 1598.83 151.903 Q1607.51 151.903 1612.58 156.66 Q1617.65 161.417 1617.65 169.542 Q1617.65 177.91 1612.45 182.563 Q1607.24 187.181 1597.76 187.181 Q1594.49 187.181 1591.09 186.625 Q1587.72 186.07 1584.11 184.958 L1584.11 177.91 Q1587.24 179.611 1590.57 180.445 Q1593.9 181.278 1597.62 181.278 Q1603.63 181.278 1607.13 178.118 Q1610.64 174.958 1610.64 169.542 Q1610.64 164.125 1607.13 160.966 Q1603.63 157.806 1597.62 157.806 Q1594.81 157.806 1591.99 158.431 Q1589.22 159.056 1586.3 160.375 L1586.3 134.334 Z" fill="#000000" fill-rule="evenodd" fill-opacity="1" /><path clip-path="url(#clip260)" d="M1629.7 134.334 L1663.04 134.334 L1663.04 137.32 L1644.22 186.174 L1636.89 186.174 L1654.6 140.236 L1629.7 140.236 L1629.7 134.334 Z" fill="#000000" fill-rule="evenodd" fill-opacity="1" /><path clip-path="url(#clip260)" d="M1700.6 148.431 L1700.6 154.472 Q1697.9 153.084 1694.98 152.389 Q1692.06 151.695 1688.94 151.695 Q1684.18 151.695 1681.78 153.153 Q1679.42 154.611 1679.42 157.528 Q1679.42 159.75 1681.13 161.035 Q1682.83 162.285 1687.97 163.431 L1690.15 163.917 Q1696.96 165.375 1699.81 168.049 Q1702.69 170.688 1702.69 175.445 Q1702.69 180.861 1698.38 184.021 Q1694.11 187.181 1686.61 187.181 Q1683.49 187.181 1680.08 186.556 Q1676.72 185.965 1672.97 184.75 L1672.97 178.153 Q1676.51 179.993 1679.94 180.931 Q1683.38 181.833 1686.75 181.833 Q1691.26 181.833 1693.69 180.306 Q1696.13 178.743 1696.13 175.931 Q1696.13 173.327 1694.35 171.938 Q1692.62 170.549 1686.68 169.264 L1684.46 168.743 Q1678.52 167.493 1675.88 164.924 Q1673.24 162.32 1673.24 157.806 Q1673.24 152.32 1677.13 149.334 Q1681.02 146.348 1688.17 146.348 Q1691.72 146.348 1694.84 146.868 Q1697.97 147.389 1700.6 148.431 Z" fill="#000000" fill-rule="evenodd" fill-opacity="1" /><path clip-path="url(#clip260)" d="M1720.72 362.802 Q1715.3 362.802 1712.56 368.149 Q1709.85 373.461 1709.85 384.156 Q1709.85 394.815 1712.56 400.162 Q1715.3 405.475 1720.72 405.475 Q1726.17 405.475 1728.88 400.162 Q1731.62 394.815 1731.62 384.156 Q1731.62 373.461 1728.88 368.149 Q1726.17 362.802 1720.72 362.802 M1720.72 357.246 Q1729.43 357.246 1734.02 364.156 Q1738.64 371.031 1738.64 384.156 Q1738.64 397.246 1734.02 404.155 Q1729.43 411.03 1720.72 411.03 Q1712 411.03 1707.39 404.155 Q1702.8 397.246 1702.8 384.156 Q1702.8 371.031 1707.39 364.156 Q1712 357.246 1720.72 357.246 Z" fill="#000000" fill-rule="evenodd" fill-opacity="1" /><path clip-path="url(#clip260)" d="M1750.96 401.204 L1758.29 401.204 L1758.29 410.023 L1750.96 410.023 L1750.96 401.204 Z" fill="#000000" fill-rule="evenodd" fill-opacity="1" /><path clip-path="url(#clip260)" d="M1779.61 404.121 L1804.09 404.121 L1804.09 410.023 L1771.17 410.023 L1771.17 404.121 Q1775.16 399.989 1782.04 393.044 Q1788.95 386.065 1790.72 384.051 Q1794.09 380.267 1795.41 377.663 Q1796.76 375.024 1796.76 372.489 Q1796.76 368.357 1793.84 365.753 Q1790.96 363.149 1786.31 363.149 Q1783.01 363.149 1779.33 364.295 Q1775.68 365.44 1771.52 367.767 L1771.52 360.683 Q1775.75 358.982 1779.43 358.114 Q1783.11 357.246 1786.17 357.246 Q1794.23 357.246 1799.02 361.274 Q1803.81 365.302 1803.81 372.038 Q1803.81 375.232 1802.59 378.114 Q1801.41 380.961 1798.25 384.85 Q1797.38 385.857 1792.73 390.683 Q1788.08 395.475 1779.61 404.121 Z" fill="#000000" fill-rule="evenodd" fill-opacity="1" /><path clip-path="url(#clip260)" d="M1833.81 362.802 Q1828.39 362.802 1825.65 368.149 Q1822.94 373.461 1822.94 384.156 Q1822.94 394.815 1825.65 400.162 Q1828.39 405.475 1833.81 405.475 Q1839.26 405.475 1841.97 400.162 Q1844.71 394.815 1844.71 384.156 Q1844.71 373.461 1841.97 368.149 Q1839.26 362.802 1833.81 362.802 M1833.81 357.246 Q1842.52 357.246 1847.11 364.156 Q1851.72 371.031 1851.72 384.156 Q1851.72 397.246 1847.11 404.155 Q1842.52 411.03 1833.81 411.03 Q1825.09 411.03 1820.48 404.155 Q1815.89 397.246 1815.89 384.156 Q1815.89 371.031 1820.48 364.156 Q1825.09 357.246 1833.81 357.246 Z" fill="#000000" fill-rule="evenodd" fill-opacity="1" /><path clip-path="url(#clip260)" d="M1864.26 408.947 L1864.26 402.558 Q1866.9 403.808 1869.61 404.468 Q1872.32 405.128 1874.92 405.128 Q1881.86 405.128 1885.51 400.475 Q1889.19 395.787 1889.71 386.274 Q1887.7 389.26 1884.61 390.857 Q1881.52 392.454 1877.77 392.454 Q1869.99 392.454 1865.44 387.767 Q1860.93 383.044 1860.93 374.885 Q1860.93 366.899 1865.65 362.072 Q1870.37 357.246 1878.22 357.246 Q1887.21 357.246 1891.93 364.156 Q1896.69 371.031 1896.69 384.156 Q1896.69 396.412 1890.86 403.739 Q1885.06 411.03 1875.23 411.03 Q1872.59 411.03 1869.88 410.51 Q1867.18 409.989 1864.26 408.947 M1878.22 386.968 Q1882.94 386.968 1885.68 383.739 Q1888.46 380.51 1888.46 374.885 Q1888.46 369.295 1885.68 366.065 Q1882.94 362.802 1878.22 362.802 Q1873.5 362.802 1870.72 366.065 Q1867.97 369.295 1867.97 374.885 Q1867.97 380.51 1870.72 383.739 Q1873.5 386.968 1878.22 386.968 Z" fill="#000000" fill-rule="evenodd" fill-opacity="1" /><path clip-path="url(#clip260)" d="M1933.18 372.281 L1933.18 378.322 Q1930.47 376.933 1927.56 376.239 Q1924.64 375.545 1921.52 375.545 Q1916.76 375.545 1914.36 377.003 Q1912 378.461 1912 381.378 Q1912 383.6 1913.7 384.885 Q1915.41 386.135 1920.54 387.281 L1922.73 387.767 Q1929.54 389.225 1932.38 391.899 Q1935.27 394.537 1935.27 399.294 Q1935.27 404.711 1930.96 407.871 Q1926.69 411.03 1919.19 411.03 Q1916.06 411.03 1912.66 410.405 Q1909.29 409.815 1905.54 408.6 L1905.54 402.003 Q1909.09 403.843 1912.52 404.78 Q1915.96 405.683 1919.33 405.683 Q1923.84 405.683 1926.27 404.155 Q1928.7 402.593 1928.7 399.78 Q1928.7 397.176 1926.93 395.787 Q1925.2 394.399 1919.26 393.114 L1917.04 392.593 Q1911.1 391.343 1908.46 388.774 Q1905.82 386.169 1905.82 381.656 Q1905.82 376.169 1909.71 373.183 Q1913.6 370.197 1920.75 370.197 Q1924.29 370.197 1927.42 370.718 Q1930.54 371.239 1933.18 372.281 Z" fill="#000000" fill-rule="evenodd" fill-opacity="1" /><path clip-path="url(#clip260)" d="M1953.3 806.897 Q1947.88 806.897 1945.14 812.244 Q1942.43 817.556 1942.43 828.251 Q1942.43 838.911 1945.14 844.258 Q1947.88 849.57 1953.3 849.57 Q1958.75 849.57 1961.46 844.258 Q1964.2 838.911 1964.2 828.251 Q1964.2 817.556 1961.46 812.244 Q1958.75 806.897 1953.3 806.897 M1953.3 801.341 Q1962.01 801.341 1966.6 808.251 Q1971.21 815.126 1971.21 828.251 Q1971.21 841.341 1966.6 848.251 Q1962.01 855.126 1953.3 855.126 Q1944.58 855.126 1939.96 848.251 Q1935.38 841.341 1935.38 828.251 Q1935.38 815.126 1939.96 808.251 Q1944.58 801.341 1953.3 801.341 Z" fill="#000000" fill-rule="evenodd" fill-opacity="1" /><path clip-path="url(#clip260)" d="M1983.54 845.299 L1990.87 845.299 L1990.87 854.119 L1983.54 854.119 L1983.54 845.299 Z" fill="#000000" fill-rule="evenodd" fill-opacity="1" /><path clip-path="url(#clip260)" d="M2007.36 848.216 L2018.82 848.216 L2018.82 808.668 L2006.35 811.168 L2006.35 804.779 L2018.75 802.279 L2025.76 802.279 L2025.76 848.216 L2037.22 848.216 L2037.22 854.119 L2007.36 854.119 L2007.36 848.216 Z" fill="#000000" fill-rule="evenodd" fill-opacity="1" /><path clip-path="url(#clip260)" d="M2052.6 848.216 L2064.06 848.216 L2064.06 808.668 L2051.6 811.168 L2051.6 804.779 L2063.99 802.279 L2071 802.279 L2071 848.216 L2082.46 848.216 L2082.46 854.119 L2052.6 854.119 L2052.6 848.216 Z" fill="#000000" fill-rule="evenodd" fill-opacity="1" /><path clip-path="url(#clip260)" d="M2102.67 848.216 L2127.15 848.216 L2127.15 854.119 L2094.23 854.119 L2094.23 848.216 Q2098.23 844.084 2105.1 837.14 Q2112.01 830.161 2113.78 828.147 Q2117.15 824.362 2118.47 821.758 Q2119.82 819.119 2119.82 816.584 Q2119.82 812.452 2116.91 809.848 Q2114.03 807.244 2109.37 807.244 Q2106.07 807.244 2102.39 808.39 Q2098.75 809.536 2094.58 811.862 L2094.58 804.779 Q2098.82 803.077 2102.5 802.209 Q2106.18 801.341 2109.23 801.341 Q2117.29 801.341 2122.08 805.369 Q2126.87 809.397 2126.87 816.133 Q2126.87 819.327 2125.66 822.209 Q2124.48 825.056 2121.32 828.945 Q2120.45 829.952 2115.8 834.779 Q2111.14 839.57 2102.67 848.216 Z" fill="#000000" fill-rule="evenodd" fill-opacity="1" /><path clip-path="url(#clip260)" d="M2165.76 816.376 L2165.76 822.418 Q2163.05 821.029 2160.14 820.334 Q2157.22 819.64 2154.09 819.64 Q2149.34 819.64 2146.94 821.098 Q2144.58 822.556 2144.58 825.473 Q2144.58 827.695 2146.28 828.98 Q2147.98 830.23 2153.12 831.376 L2155.31 831.862 Q2162.12 833.32 2164.96 835.994 Q2167.84 838.633 2167.84 843.39 Q2167.84 848.806 2163.54 851.966 Q2159.27 855.126 2151.77 855.126 Q2148.64 855.126 2145.24 854.501 Q2141.87 853.91 2138.12 852.695 L2138.12 846.098 Q2141.66 847.938 2145.1 848.876 Q2148.54 849.779 2151.91 849.779 Q2156.42 849.779 2158.85 848.251 Q2161.28 846.688 2161.28 843.876 Q2161.28 841.272 2159.51 839.883 Q2157.78 838.494 2151.84 837.209 L2149.62 836.688 Q2143.68 835.438 2141.04 832.869 Q2138.4 830.265 2138.4 825.751 Q2138.4 820.265 2142.29 817.279 Q2146.18 814.293 2153.33 814.293 Q2156.87 814.293 2160 814.813 Q2163.12 815.334 2165.76 816.376 Z" fill="#000000" fill-rule="evenodd" fill-opacity="1" /></svg>
